<?xml version="1.0" standalone="no"?>
<!DOCTYPE svg PUBLIC "-//W3C//DTD SVG 1.1//EN" "http://www.w3.org/Graphics/SVG/1.1/DTD/svg11.dtd" >
<svg xmlns="http://www.w3.org/2000/svg" xmlns:xlink="http://www.w3.org/1999/xlink" version="1.1">
<metadata>
Created by FontForge 20190801 at Tue Sep  5 17:22:28 2006
 By Jimmy Wärting
Copyright Copr. 1995 Carter &#38; Cone Type Inc. All rights reserved.
</metadata>
<defs>
<font id="Miller-Display" horiz-adv-x="500" >
  <font-face 
    font-family="Miller"
    font-weight="500"
    font-stretch="normal"
    units-per-em="1000"
    panose-1="0 0 0 0 0 0 0 0 0 0"
    ascent="800"
    descent="-200"
    x-height="452"
    cap-height="683"
    bbox="-139 -243 1202 935"
    underline-thickness="20"
    underline-position="-143"
    stemh="23"
    stemv="91"
    unicode-range="U+0020-FB02"
  />
<missing-glyph 
 />
    <glyph glyph-name=".notdef" 
 />
    <glyph glyph-name="space" unicode=" " horiz-adv-x="236" 
 />
    <glyph glyph-name="exclam" unicode="!" horiz-adv-x="365" 
d="M247 629c0 -41 -32 -226 -50 -416h-26c-15 189 -48 373 -48 416c0 37 25 68 62 68s62 -31 62 -68zM252 54c0 -37 -30 -66 -67 -66s-67 29 -67 66s30 67 67 67s67 -30 67 -67z" />
    <glyph glyph-name="quotedbl" unicode="&#x22;" horiz-adv-x="392" 
d="M349 682c0 -26 -18 -67 -43 -210h-26c-22 144 -41 182 -41 210c0 30 19 55 55 55s55 -25 55 -55zM153 682c0 -26 -18 -67 -43 -210h-26c-22 144 -41 182 -41 210c0 30 19 55 55 55s55 -25 55 -55z" />
    <glyph glyph-name="numbersign" unicode="#" horiz-adv-x="580" 
d="M485 225l-112 -27v-205h-24v198l-117 -29v-169h-24v162l-111 -27v91l111 27v101l-111 -27v91l111 27v189h24v-182l117 29v153h24v-146l112 27v-91l-112 -27v-101l112 27v-91zM349 282v101l-117 -29v-101z" />
    <glyph glyph-name="dollar" unicode="$" horiz-adv-x="615" 
d="M537 188c0 -85 -51 -167 -165 -189v-141h-22v138c-15 -2 -31 -3 -49 -3c-8 0 -17 0 -25 1v-136h-22v138c-87 13 -173 59 -173 138c0 50 22 78 62 78c33 0 47 -24 47 -52c0 -42 -19 -34 -33 -60c0 -47 39 -72 97 -80v249c-96 14 -161 79 -161 164c0 82 50 162 161 182v98
h22v-95c13 1 26 2 41 2c11 0 22 -1 33 -2v95h22v-97c74 -12 142 -49 142 -117c0 -37 -14 -70 -50 -70c-27 0 -48 14 -48 45c0 38 27 40 36 72c-7 24 -35 39 -80 46v-230c103 -21 165 -73 165 -174zM350 365v230c-11 1 -22 1 -33 1c-14 0 -28 -1 -41 -3v-220
c20 -4 46 -6 74 -8zM254 376v214c-52 -12 -90 -44 -90 -101c0 -53 17 -95 90 -113zM469 139c0 53 -31 98 -97 118v-233c55 13 97 49 97 115zM350 20v240c-22 6 -46 5 -74 7v-249c8 -1 17 -1 25 -1c17 0 33 1 49 3z" />
    <glyph glyph-name="percent" unicode="%" horiz-adv-x="878" 
d="M813 143c0 -88 -80 -157 -161 -157c-82 0 -157 56 -157 156c0 92 81 162 157 162c81 0 161 -51 161 -161zM667 675l-429 -773l-29 15l427 773zM383 459c0 -87 -80 -157 -161 -157c-82 0 -157 55 -157 156c0 93 81 162 157 162c81 0 161 -52 161 -161zM734 141
c0 86 -29 139 -81 139s-80 -58 -80 -134c0 -81 27 -136 82 -136c43 0 79 49 79 131zM304 457c0 88 -29 139 -81 139s-80 -55 -80 -134c0 -82 27 -136 82 -136c43 0 79 47 79 131z" />
    <glyph glyph-name="ampersand" unicode="&#x26;" horiz-adv-x="743" 
d="M750 410c-57 -6 -104 -13 -136 -49c-29 -33 -63 -130 -125 -205c27 -34 79 -86 104 -101c35 -21 90 -31 130 -33v-22h-234l-70 86c-48 -49 -110 -102 -192 -102c-94 0 -191 50 -191 165c0 95 56 151 168 222c-51 79 -72 122 -72 172c0 91 81 154 172 154
c88 0 126 -66 126 -134c0 -59 -42 -117 -123 -166c61 -90 103 -143 165 -220c43 61 81 136 81 182c0 24 -38 40 -90 51v21h287v-21zM384 566c0 65 -34 100 -78 100c-66 0 -78 -65 -78 -94c0 -43 18 -89 65 -154c64 39 91 85 91 148zM401 107c-56 75 -139 179 -182 244
c-59 -37 -80 -93 -80 -160c0 -82 48 -145 131 -145c50 0 98 21 131 61z" />
    <glyph glyph-name="quoteright" unicode="&#x2019;" horiz-adv-x="185" 
d="M174 637c0 -86 -85 -135 -129 -160l-14 23c53 31 91 58 97 122h-25c-49 0 -65 30 -65 59c0 27 22 56 58 56c56 0 78 -40 78 -100z" />
    <glyph glyph-name="parenleft" unicode="(" horiz-adv-x="365" 
d="M332 -133l-42 -27c-116 88 -244 214 -244 455c0 232 121 359 243 453l43 -27c-113 -87 -224 -206 -224 -426c0 -225 118 -351 224 -428z" />
    <glyph glyph-name="parenright" unicode=")" horiz-adv-x="365" 
d="M319 295c0 -241 -128 -367 -244 -455l-42 27c106 77 224 203 224 428c0 220 -111 339 -224 426l43 27c122 -94 243 -221 243 -453z" />
    <glyph glyph-name="asterisk" unicode="*" horiz-adv-x="393" 
d="M329 487c0 -20 -15 -31 -28 -31c-14 0 -39 36 -99 77c5 -58 21 -95 21 -111c0 -15 -10 -27 -28 -27s-27 11 -27 27c0 19 15 50 22 112c-62 -41 -87 -78 -103 -78c-13 0 -27 15 -27 31c0 30 32 17 127 59c-91 40 -127 29 -127 60c0 15 12 30 26 30c20 0 42 -38 103 -77
c-7 55 -21 92 -21 111c0 17 9 27 27 27c20 0 28 -12 28 -27c0 -17 -17 -54 -22 -111c62 44 83 77 102 77c14 0 26 -14 26 -30c0 -30 -34 -19 -125 -60c87 -38 125 -30 125 -59z" />
    <glyph glyph-name="plus" unicode="+" horiz-adv-x="580" 
d="M531 237h-217v-218h-48v218h-217v46h217v218h48v-218h217v-46z" />
    <glyph glyph-name="comma" unicode="," horiz-adv-x="250" 
d="M197 18c0 -92 -93 -159 -140 -185l-11 23c56 33 95 78 101 146h-27c-52 0 -69 32 -69 63c0 28 23 59 62 59c59 0 84 -43 84 -106z" />
    <glyph glyph-name="hyphen" unicode="-" horiz-adv-x="380" 
d="M340 212h-300v76h300v-76z" />
    <glyph glyph-name="period" unicode="." horiz-adv-x="250" 
d="M193 57c0 -37 -30 -66 -67 -66s-67 29 -67 66s30 67 67 67s67 -30 67 -67z" />
    <glyph glyph-name="slash" unicode="/" horiz-adv-x="420" 
d="M383 739l-313 -951l-46 13l312 951z" />
    <glyph glyph-name="zero" unicode="0" horiz-adv-x="614" 
d="M564 317c0 -204 -124 -331 -262 -331c-164 0 -252 141 -252 303c0 205 126 331 262 331c163 0 252 -139 252 -303zM456 304c0 160 -46 291 -147 291c-84 0 -151 -113 -151 -293c0 -166 47 -291 147 -291c83 0 151 113 151 293z" />
    <glyph glyph-name="one" unicode="1" horiz-adv-x="427" 
d="M387 0h-310v22c18 1 65 5 79 10c18 6 31 25 31 47v449c-11 -3 -27 -5 -45 -5c-32 0 -76 30 -112 60l9 17c30 -13 65 -23 105 -23c57 0 111 25 140 42h13c-7 -42 -14 -105 -14 -150v-385c0 -21 11 -40 29 -48c15 -7 57 -13 75 -14v-22z" />
    <glyph glyph-name="two" unicode="2" horiz-adv-x="577" 
d="M527 171l-59 -171h-415v25c121 92 177 144 245 215c89 93 114 162 114 247c0 79 -56 107 -102 107c-108 0 -167 -108 -167 -185c0 -37 8 -65 55 -65c53 0 72 31 90 55l12 -11c-31 -50 -78 -87 -142 -87c-46 0 -94 29 -94 98c0 92 106 221 265 221c108 0 180 -57 180 -156
c0 -139 -96 -228 -325 -358l-29 -25h249c51 0 84 54 104 96z" />
    <glyph glyph-name="three" unicode="3" horiz-adv-x="565" 
d="M504 194c0 -138 -126 -220 -288 -220c-89 0 -187 46 -187 137c0 52 36 82 76 82c33 0 49 -18 49 -49c0 -42 -46 -34 -46 -70c0 -38 31 -74 108 -74c87 0 184 88 184 201c0 70 -26 104 -80 104c-38 0 -69 -33 -100 -61l-20 24c107 76 194 122 194 229c0 60 -27 98 -93 98
c-51 0 -137 -42 -137 -129c0 -31 10 -53 49 -53c25 0 47 20 60 32l12 -12c-22 -25 -75 -65 -106 -65c-62 0 -92 35 -92 76c0 92 114 176 241 176c129 0 168 -89 168 -133c0 -51 -41 -116 -159 -145l-18 -15c6 1 31 3 38 3c63 0 147 -29 147 -136z" />
    <glyph glyph-name="four" unicode="4" horiz-adv-x="569" 
d="M526 117h-17c-1 29 -10 67 -30 83c-16 13 -51 11 -98 11v-129c0 -22 9 -40 27 -48c16 -7 49 -11 67 -12v-22h-283v22c18 1 55 3 68 8c19 6 28 24 28 46v135h-264v23l330 395h27v-377c47 0 80 -1 97 13c18 15 28 51 29 76h19v-224zM288 252v257l-214 -257h214z" />
    <glyph glyph-name="five" unicode="5" horiz-adv-x="522" 
d="M483 620c-60 -119 -221 -133 -258 -133c-24 0 -53 1 -59 2l-37 -146c31 25 88 41 133 41c103 0 201 -69 201 -194c0 -122 -121 -204 -243 -204c-115 0 -185 54 -185 119c0 52 41 64 63 64c28 0 42 -18 42 -44c0 -30 -14 -30 -14 -64c5 -27 39 -52 93 -52
c112 0 141 146 141 232c0 92 -69 117 -116 117c-43 0 -113 -26 -129 -80l-26 5l76 334h26c14 -16 52 -39 130 -39c71 0 105 19 149 53z" />
    <glyph glyph-name="six" unicode="6" horiz-adv-x="565" 
d="M529 600c0 -35 -13 -56 -51 -56c-49 0 -41 45 -62 87c-14 30 -24 36 -60 36c-88 0 -169 -132 -194 -324l4 -2c43 56 92 83 165 83c88 0 179 -81 179 -207c0 -95 -55 -231 -238 -231c-117 0 -214 103 -214 285c0 240 173 429 341 429c102 0 130 -65 130 -100zM403 218
c0 107 -39 169 -124 169c-56 0 -123 -52 -123 -190c0 -122 61 -188 119 -188c109 0 128 128 128 209z" />
    <glyph glyph-name="seven" unicode="7" horiz-adv-x="506" 
d="M518 586c-79 -114 -117 -181 -166 -308c-38 -99 -66 -178 -74 -312c-3 -45 -21 -86 -66 -86c-33 0 -51 17 -51 70c0 48 67 183 121 287s93 170 155 269h-269c-67 0 -99 -76 -108 -117l-20 5l60 257h18l8 -56h392v-9z" />
    <glyph glyph-name="eight" unicode="8" horiz-adv-x="558" 
d="M498 179c0 -120 -123 -194 -239 -194c-118 0 -199 67 -199 151c0 83 79 144 129 162v4c-72 35 -108 68 -108 146c0 103 105 178 205 178c117 0 187 -59 187 -147c0 -40 -40 -104 -109 -134v-4c59 -23 134 -63 134 -162zM409 492c0 65 -47 109 -122 109
c-74 0 -123 -50 -123 -108c0 -77 62 -121 172 -139c55 22 73 75 73 138zM411 138c0 90 -104 134 -194 152c-49 -26 -84 -88 -84 -155c0 -66 42 -124 135 -124c73 0 143 46 143 127z" />
    <glyph glyph-name="nine" unicode="9" horiz-adv-x="565" 
d="M506 325c0 -219 -129 -427 -348 -427c-93 0 -134 59 -134 102c0 39 18 58 54 58c48 0 43 -58 57 -89s36 -40 64 -40c115 0 191 163 207 339l-7 1c-30 -41 -81 -87 -162 -87c-92 0 -180 73 -180 207c0 108 74 231 224 231c107 0 225 -68 225 -295zM411 399
c0 132 -66 198 -130 198c-102 0 -119 -109 -119 -189c0 -123 35 -184 119 -184c51 0 130 42 130 175z" />
    <glyph glyph-name="colon" unicode=":" horiz-adv-x="332" 
d="M233 387c0 -37 -30 -66 -67 -66s-67 29 -67 66s30 67 67 67s67 -30 67 -67zM233 58c0 -37 -30 -66 -67 -66s-67 29 -67 66s30 67 67 67s67 -30 67 -67z" />
    <glyph glyph-name="semicolon" unicode=";" horiz-adv-x="332" 
d="M226 390c0 -34 -20 -68 -61 -68c-38 0 -62 27 -62 70c0 39 28 63 63 63c39 0 60 -32 60 -65zM237 18c0 -92 -92 -158 -139 -184l-12 22c56 33 95 78 101 146h-27c-52 0 -69 32 -69 63c0 28 23 59 62 59c59 0 84 -43 84 -106z" />
    <glyph glyph-name="less" unicode="&#x3c;" horiz-adv-x="560" 
d="M497 35l-442 205v40l442 205v-52l-379 -173l379 -173v-52z" />
    <glyph glyph-name="equal" unicode="=" horiz-adv-x="580" 
d="M511 317h-442v46h442v-46zM511 157h-442v46h442v-46z" />
    <glyph glyph-name="greater" unicode="&#x3e;" horiz-adv-x="560" 
d="M505 240l-442 -205v52l379 173l-379 173v52l442 -205v-40z" />
    <glyph glyph-name="question" unicode="?" horiz-adv-x="482" 
d="M432 483c0 -113 -94 -193 -221 -209l-4 -96h-29v172c77 11 160 36 160 141c0 125 -53 165 -120 165c-27 0 -55 -6 -67 -21c3 -20 9 -19 9 -59c0 -35 -37 -52 -56 -52c-35 0 -51 25 -51 57c0 50 62 102 167 102c141 0 212 -86 212 -200zM262 54c0 -37 -30 -66 -67 -66
s-67 29 -67 66s30 67 67 67s67 -30 67 -67z" />
    <glyph glyph-name="at" unicode="@" horiz-adv-x="1000" 
d="M955 114c-60 -206 -236 -329 -444 -329c-217 0 -429 135 -429 394c0 242 196 477 492 477c230 0 333 -159 333 -322c0 -159 -122 -301 -258 -301c-54 0 -91 28 -95 80l-3 1c-29 -45 -71 -79 -112 -79c-55 0 -112 30 -112 131c0 84 83 260 228 260c34 0 64 -20 71 -60h3
l20 54h70l-92 -263c-6 -16 -10 -39 -10 -52c0 -33 17 -46 42 -46c106 0 219 110 219 281c0 164 -109 284 -306 284c-195 0 -397 -159 -397 -440c0 -228 147 -359 336 -359c223 0 362 104 426 295zM618 332c-8 50 -27 74 -65 74c-83 0 -145 -160 -145 -256
c0 -73 22 -85 42 -85c50 0 83 45 107 87z" />
    <glyph glyph-name="A" unicode="A" horiz-adv-x="690" 
d="M715 0h-315v22c35 2 101 14 101 39c0 7 -1 15 -4 23l-62 158h-246c-19 -46 -31 -80 -40 -110c-7 -22 -11 -42 -11 -56c0 -36 78 -52 113 -54v-22h-275v22c19 1 52 9 70 19c24 14 42 43 57 78c71 172 154 384 230 575h38c102 -258 200 -512 237 -605c8 -20 17 -35 41 -49
c18 -10 47 -17 66 -18v-22zM422 275l-111 279l-109 -279h220z" />
    <glyph glyph-name="B" unicode="B" horiz-adv-x="667" 
d="M621 181c0 -128 -135 -181 -230 -181h-348v22c18 1 61 8 74 13c24 9 31 26 31 48v511c0 22 -7 40 -31 50c-21 9 -52 16 -70 17v22h342c74 0 196 -30 196 -137c0 -113 -78 -147 -173 -174v-9c71 -8 209 -50 209 -182zM465 527c0 99 -67 129 -129 129c-17 0 -58 -1 -82 -2
v-279h62c110 0 149 68 149 152zM498 201c0 81 -56 147 -159 147c-18 0 -67 -1 -85 -2v-257c7 -45 35 -61 94 -61c119 0 150 92 150 173z" />
    <glyph glyph-name="C" unicode="C" horiz-adv-x="653" 
d="M641 173c-41 -93 -121 -188 -273 -188c-197 0 -331 136 -331 348c0 206 151 363 352 363c55 0 121 -26 151 -54l30 51h41l4 -247h-24c-36 116 -104 221 -233 221c-102 0 -201 -99 -201 -326c0 -181 109 -304 240 -304c122 0 179 63 218 150z" />
    <glyph glyph-name="D" unicode="D" horiz-adv-x="779" 
d="M742 337c0 -233 -200 -337 -393 -337h-306v22c20 0 61 5 74 10c24 9 31 27 31 49v513c0 22 -7 41 -31 51s-52 15 -70 16v22h322c137 0 373 -72 373 -346zM619 338c0 182 -110 317 -278 317c-23 0 -65 -1 -87 -2v-547c6 -49 32 -77 109 -77c176 0 256 129 256 309z" />
    <glyph glyph-name="E" unicode="E" horiz-adv-x="666" 
d="M643 192l-13 -192h-592v22c18 1 64 6 79 12c24 9 31 26 31 49v511c0 22 -6 39 -31 49c-19 8 -61 17 -79 18v22h551v-155h-27c-11 44 -64 118 -107 124c-24 3 -51 4 -83 4h-118v-288h87c56 0 72 19 84 31c15 15 28 66 31 92h27v-279h-27c-2 29 -19 84 -31 97
c-13 14 -30 31 -84 31h-87v-220c0 -82 18 -91 119 -91c70 0 140 -2 164 23c30 31 71 110 81 140h25z" />
    <glyph glyph-name="F" unicode="F" horiz-adv-x="612" 
d="M596 521h-27c-11 44 -64 125 -107 131c-24 3 -51 4 -83 4h-125v-291h89c51 0 76 19 89 31c14 13 27 55 31 92h27v-281h-27c-2 29 -17 85 -31 99c-13 13 -42 31 -89 31h-89v-251c0 -22 8 -39 31 -49c12 -5 58 -14 76 -15v-22h-323v22c18 1 66 5 79 10c24 9 31 27 31 49
v513c0 22 -6 39 -31 49c-19 8 -61 17 -79 18v22h558v-162z" />
    <glyph glyph-name="G" unicode="G" horiz-adv-x="746" 
d="M753 279c-18 -3 -52 -6 -71 -14c-24 -11 -30 -30 -30 -52v-232l-13 -4l-54 61c-58 -22 -157 -53 -241 -53c-146 0 -307 119 -307 341c0 207 162 370 377 370c57 0 129 -26 160 -54l32 51h39l5 -240h-23c-35 109 -113 214 -252 214c-115 0 -216 -116 -216 -334
c0 -184 100 -316 224 -316c109 0 164 62 171 126v61c0 26 -7 49 -33 59c-24 9 -81 15 -99 16v23h331v-23z" />
    <glyph glyph-name="H" unicode="H" horiz-adv-x="853" 
d="M806 0h-310v22c18 1 59 5 72 10c24 9 31 27 31 49v258h-345v-253c0 -22 8 -39 31 -49c12 -5 54 -14 72 -15v-22h-310v22c18 1 57 5 70 10c24 9 31 27 31 49v513c0 22 -7 39 -31 49c-17 7 -52 17 -70 18v22h310v-22c-18 -1 -54 -7 -72 -13c-25 -8 -31 -27 -31 -49v-227
h345v222c0 22 -8 39 -31 49c-17 7 -54 17 -72 18v22h310v-22c-18 -1 -52 -7 -70 -13c-25 -8 -31 -27 -31 -49v-513c0 -22 8 -38 31 -49c12 -6 52 -14 70 -15v-22z" />
    <glyph glyph-name="I" unicode="I" horiz-adv-x="406" 
d="M360 0h-314v22c18 1 60 5 73 10c24 9 31 26 31 48v515c0 22 -6 38 -31 48c-18 7 -55 17 -73 18v22h314v-22c-18 -1 -55 -7 -73 -13c-25 -8 -31 -26 -31 -48v-515c0 -22 8 -38 31 -48c12 -5 55 -14 73 -15v-22z" />
    <glyph glyph-name="J" unicode="J" horiz-adv-x="494" 
d="M468 661c-18 -1 -58 -7 -76 -13c-25 -8 -31 -27 -31 -49v-413c0 -72 -75 -203 -223 -203c-106 0 -138 55 -138 94s28 72 69 72s65 -28 65 -64c0 -25 -12 -52 -41 -68v-5c4 -1 14 -2 18 -2c133 0 144 105 144 209v375c0 22 -7 38 -31 49c-22 10 -61 17 -81 18v22h325v-22z
" />
    <glyph glyph-name="K" unicode="K" horiz-adv-x="738" 
d="M771 0h-366v22c41 2 96 6 96 44s-169 207 -231 269h-16v-249c0 -22 8 -39 31 -49c12 -5 54 -14 72 -15v-22h-310v22c18 1 57 5 70 10c24 9 31 27 31 49v513c0 22 -7 39 -31 49c-17 7 -52 17 -70 18v22h310v-22c-18 -1 -54 -7 -72 -13c-25 -8 -31 -27 -31 -49v-245h11
c130 105 249 223 249 271c0 30 -63 35 -81 36v22h283v-22c-18 -1 -93 -1 -141 -52c-85 -91 -129 -146 -218 -221c103 -107 176 -180 259 -285c18 -23 44 -50 83 -67c19 -8 54 -13 72 -14v-22z" />
    <glyph glyph-name="L" unicode="L" horiz-adv-x="629" 
d="M631 194l-15 -194h-571v22c18 1 59 6 72 11c24 9 31 28 31 50v509c0 22 -6 39 -31 50c-18 8 -54 18 -72 19v22h313v-22c-18 -1 -55 -8 -73 -14c-25 -8 -31 -28 -31 -50v-478c0 -85 11 -92 119 -92c58 0 127 5 147 26c26 28 77 107 87 141h24z" />
    <glyph glyph-name="M" unicode="M" horiz-adv-x="959" 
d="M917 0h-330v22c18 1 73 6 87 13c23 12 32 28 32 51v512l-259 -587h-19c-12 39 -34 96 -53 139l-194 434v-394c0 -76 12 -119 34 -137c17 -14 85 -30 103 -31v-22h-300v22c17 2 69 8 93 25s33 61 33 138v366c0 41 -11 66 -31 82c-24 19 -63 27 -90 28v22h225l232 -509
l187 424c16 37 22 74 23 85h226v-22c-18 -1 -56 -7 -74 -13c-25 -8 -31 -27 -31 -49v-513c0 -22 8 -38 31 -49c12 -6 57 -14 75 -15v-22z" />
    <glyph glyph-name="N" unicode="N" horiz-adv-x="786" 
d="M791 661c-18 -1 -76 -15 -92 -25c-27 -17 -33 -68 -33 -134v-509h-37l-448 564v-366c0 -76 12 -119 34 -137c17 -14 85 -31 103 -32v-22h-300v22c18 1 82 19 93 27c24 17 33 59 33 137v352c0 29 -12 63 -32 79c-24 19 -80 43 -107 44v22h206l418 -526v339
c0 72 -12 121 -34 135c-19 12 -79 29 -102 30v22h298v-22z" />
    <glyph glyph-name="O" unicode="O" horiz-adv-x="775" 
d="M737 346c0 -104 -31 -195 -104 -266c-65 -60 -146 -96 -249 -96c-91 0 -174 33 -239 94c-66 62 -107 147 -107 256s32 196 97 261c68 69 156 104 253 104c94 0 179 -31 254 -104c59 -59 95 -151 95 -249zM616 343c0 163 -62 325 -228 325c-142 0 -229 -122 -229 -329
c0 -178 73 -324 229 -324c155 0 228 142 228 328z" />
    <glyph glyph-name="P" unicode="P" horiz-adv-x="621" 
d="M590 521c0 -136 -129 -208 -258 -208h-78v-230c0 -22 7 -41 31 -50c13 -5 54 -10 79 -11v-22h-319v22c18 1 59 6 72 11c24 9 31 28 31 50v513c0 22 -6 43 -31 51s-58 13 -76 14v22h335c118 0 214 -59 214 -162zM466 496c0 75 -30 159 -144 159h-68v-312h49
c144 0 163 106 163 153z" />
    <glyph glyph-name="Q" unicode="Q" horiz-adv-x="783" 
d="M857 -16c-27 -41 -108 -131 -208 -131c-74 0 -157 34 -187 145c-26 -8 -54 -13 -78 -13c-91 0 -174 32 -239 93c-66 62 -107 147 -107 256s32 196 97 261c68 69 156 104 253 104c94 0 179 -31 254 -104c59 -59 95 -151 95 -249c0 -125 -52 -228 -173 -300
c22 -101 98 -124 156 -124c55 0 95 43 117 77zM616 343c0 163 -62 325 -228 325c-142 0 -229 -122 -229 -329c0 -97 20 -185 65 -245c35 91 108 118 162 118c73 0 141 -56 164 -130c47 57 66 149 66 261zM456 21c-8 105 -46 148 -107 148c-19 0 -82 -14 -106 -95
c38 -39 84 -60 145 -60c24 0 49 3 68 7z" />
    <glyph glyph-name="R" unicode="R" horiz-adv-x="737" 
d="M731 129c0 -94 -33 -140 -121 -140c-80 0 -118 56 -133 169c-10 79 -28 175 -144 175h-79v-250c0 -22 7 -41 31 -50c13 -5 55 -10 73 -11v-22h-313v22c18 1 59 6 72 11c24 9 31 28 31 50v514c0 22 -6 42 -31 50c-18 6 -54 13 -72 14v22h349c101 0 214 -45 214 -154
s-114 -154 -185 -174v-10c47 -5 131 -31 151 -104c15 -55 21 -104 34 -153c12 -45 39 -48 54 -48c28 0 43 17 43 89v21h26v-21zM485 509c0 114 -67 146 -143 146h-88v-293h62c88 0 169 33 169 147z" />
    <glyph glyph-name="S" unicode="S" horiz-adv-x="547" 
d="M510 195c0 -122 -97 -208 -226 -208c-81 0 -134 26 -164 50l-35 -47h-34l-7 234h23c41 -106 105 -207 229 -207c89 0 127 51 127 126c0 61 -38 107 -98 131c-57 23 -87 34 -143 59c-77 34 -118 89 -118 178c0 106 86 185 200 185c52 0 109 -23 144 -50l34 47h34l5 -227
h-22c-40 113 -85 200 -219 200c-29 0 -95 -24 -95 -102c0 -61 33 -96 88 -126c49 -27 91 -36 136 -58c86 -39 141 -79 141 -185z" />
    <glyph glyph-name="T" unicode="T" horiz-adv-x="642" 
d="M634 509h-24c-11 44 -65 137 -108 143c-24 3 -54 4 -81 4h-47v-567c0 -22 8 -40 31 -50c12 -5 64 -16 82 -17v-22h-332v22c18 1 69 7 82 12c24 9 31 28 31 50v572h-47c-22 0 -57 -1 -81 -4c-43 -6 -97 -99 -108 -143h-24v174h626v-174z" />
    <glyph glyph-name="U" unicode="U" horiz-adv-x="791" 
d="M783 661c-18 -1 -71 -11 -92 -24c-27 -17 -33 -71 -33 -133v-306c0 -163 -159 -214 -258 -214c-175 0 -265 92 -265 196v414c0 22 -8 38 -31 50c-18 9 -54 16 -70 17v22h311v-22c-18 -1 -54 -7 -72 -13c-25 -8 -31 -27 -31 -49v-399c0 -72 26 -173 182 -173
c159 0 196 109 196 175v296c0 73 -12 120 -34 134c-25 16 -79 28 -102 29v22h299v-22z" />
    <glyph glyph-name="V" unicode="V" horiz-adv-x="676" 
d="M703 661c-19 -1 -47 -10 -65 -20c-26 -15 -38 -42 -52 -73c-41 -95 -167 -388 -245 -576h-37c-93 259 -185 511 -218 602c-8 21 -17 35 -41 49c-18 10 -47 17 -66 18v22h310v-22c-35 -2 -97 -13 -97 -37c0 -7 2 -17 5 -25c15 -42 85 -238 168 -462
c63 149 129 303 161 380c21 50 23 78 23 90c0 33 -69 51 -115 54v22h269v-22z" />
    <glyph glyph-name="W" unicode="W" horiz-adv-x="993" 
d="M1016 661c-19 -1 -47 -10 -65 -20c-26 -15 -40 -41 -52 -73c-46 -122 -133 -370 -205 -576h-36c-62 207 -120 390 -161 516l-189 -516h-38c-79 260 -157 511 -184 602c-6 21 -15 35 -37 49c-18 10 -46 17 -65 18v22h305v-22c-35 -2 -99 -13 -99 -37c0 -6 2 -19 4 -25
c14 -45 67 -220 138 -444l146 396c0 34 -9 68 -46 91c-16 10 -58 18 -77 19v22h311v-22c-35 -2 -96 -13 -96 -37c0 -7 2 -18 4 -25c13 -42 71 -216 144 -439c56 156 97 276 121 357c15 52 20 73 20 90c0 35 -66 51 -112 54v22h269v-22z" />
    <glyph glyph-name="X" unicode="X" horiz-adv-x="762" 
d="M767 0h-365v22c41 2 103 6 103 44c0 32 -90 146 -153 232c-75 -92 -168 -204 -168 -232c0 -38 55 -42 96 -44v-22h-284v22c18 1 52 6 71 14c39 17 64 45 82 67c60 72 108 135 179 224c-71 99 -128 179 -185 253c-16 22 -33 48 -70 67c-14 7 -57 13 -75 14v22h365v-22
c-41 -2 -102 -6 -102 -44c0 -29 71 -123 137 -212c88 104 151 186 151 212c0 38 -55 42 -96 44v22h284v-22c-18 -1 -52 -6 -71 -14c-39 -17 -64 -45 -82 -67c-53 -63 -102 -126 -163 -203c89 -122 157 -217 201 -274c17 -22 37 -47 70 -69c11 -8 57 -11 75 -12v-22z" />
    <glyph glyph-name="Y" unicode="Y" horiz-adv-x="625" 
d="M660 661c-12 -1 -47 -13 -58 -20c-26 -15 -35 -25 -56 -51c-55 -68 -101 -151 -159 -256c-17 -32 -30 -79 -30 -112v-133c0 -23 8 -40 31 -50c12 -5 64 -16 82 -17v-22h-332v22c18 1 69 7 82 12c24 9 31 28 31 50v174c0 20 -11 45 -26 75c-46 90 -89 170 -132 243
c-17 30 -37 54 -61 68c-18 10 -45 16 -64 17v22h322v-22c-35 -2 -101 -11 -101 -35c0 -14 66 -136 155 -294c93 146 164 265 164 281c0 33 -62 45 -108 48v22h260v-22z" />
    <glyph glyph-name="Z" unicode="Z" horiz-adv-x="626" 
d="M618 205l-23 -205h-591v12l469 644h-187c-34 0 -61 -1 -81 -5c-54 -11 -116 -101 -136 -152h-24l21 184h539v-12l-469 -644h209c60 0 126 6 147 26c43 40 85 109 102 152h24z" />
    <glyph glyph-name="bracketleft" unicode="[" horiz-adv-x="620" 
d="M560 -141c0 -27 -23 -52 -32 -61l-22 8c8 7 20 26 20 43c0 12 4 44 -92 44s-209 -15 -338 -44l-23 -8v886l23 -8c128 -29 242 -44 338 -44s92 24 92 44c0 17 -8 31 -16 42l21 8c11 -8 29 -34 29 -60c0 -63 -64 -114 -153 -114c-112 0 -174 38 -283 92v-806
c109 54 171 92 283 92c89 0 153 -51 153 -114z" />
    <glyph glyph-name="backslash" unicode="\" horiz-adv-x="420" 
d="M396 -199l-46 -13l-313 951l47 13z" />
    <glyph glyph-name="bracketright" unicode="]" horiz-adv-x="585" 
d="M516 -159l-22 8c-121 29 -228 44 -318 44c-91 0 -87 -32 -87 -44c0 -17 11 -36 19 -43l-21 -8c-9 9 -30 34 -30 61c0 63 60 114 144 114c106 0 164 -38 267 -92v806c-103 -54 -161 -92 -267 -92c-84 0 -144 51 -144 114c0 26 17 52 27 60l20 -8c-8 -11 -15 -25 -15 -42
c0 -20 -4 -44 87 -44c90 0 198 15 318 44l22 8v-886z" />
    <glyph glyph-name="asciicircum" unicode="^" horiz-adv-x="883" 
d="M851 593c0 -80 -63 -128 -166 -128c55 -24 95 -61 95 -164c0 -124 -107 -319 -412 -319c-171 0 -309 103 -309 235c0 87 54 121 109 151c-36 25 -71 59 -71 128c0 62 66 139 153 139c93 0 155 -53 174 -127l-17 -8c-34 54 -64 80 -119 80c-67 0 -114 -50 -114 -119
c0 -32 -1 -62 23 -81c28 10 54 20 82 20c41 0 65 -19 65 -44c0 -21 -14 -40 -45 -40c-46 0 -79 21 -110 40c-12 -5 -59 -26 -59 -90c0 -102 118 -203 324 -203c186 0 289 122 289 243c0 119 -73 163 -149 163c-57 0 -109 -33 -109 -91c0 -64 35 -89 79 -89c23 0 31 5 47 15
c-28 11 -59 20 -59 56c0 38 29 48 47 48c29 0 66 -11 66 -61c0 -38 -32 -83 -89 -83c-60 0 -129 44 -129 126c0 108 102 137 173 137c26 0 86 -5 109 -5c56 0 88 44 88 78c0 62 -35 77 -73 77c-29 0 -33 -11 -33 -21c8 -10 40 -12 40 -43c0 -32 -21 -44 -45 -44
c-28 0 -57 17 -57 60c0 33 34 69 92 69c59 0 110 -38 110 -105z" />
    <glyph glyph-name="underscore" unicode="_" horiz-adv-x="600" 
d="M605 -155h-610v45h610v-45z" />
    <glyph glyph-name="quoteleft" unicode="&#x2018;" horiz-adv-x="185" 
d="M165 713c-53 -31 -91 -58 -97 -122h25c49 0 65 -30 65 -59c0 -27 -22 -56 -58 -56c-56 0 -78 40 -78 100c0 86 85 135 129 160z" />
    <glyph glyph-name="a" unicode="a" horiz-adv-x="490" 
d="M498 119c-6 -93 -44 -129 -106 -129c-47 0 -72 21 -88 67h-3c-36 -42 -88 -69 -148 -69c-69 0 -116 42 -116 106c0 82 48 110 98 129c57 22 126 39 168 63v56c0 18 -3 101 -86 101c-38 0 -52 -23 -61 -34c0 -15 9 -37 9 -59c0 -21 -22 -43 -58 -43c-33 0 -45 26 -45 52
c0 60 85 106 161 106c99 0 172 -15 172 -148c0 -88 -5 -191 -5 -224c0 -15 14 -51 47 -51s36 39 39 77h22zM304 257c-100 -31 -170 -59 -170 -148c0 -55 25 -80 68 -80c52 0 74 23 98 53z" />
    <glyph glyph-name="b" unicode="b" horiz-adv-x="551" 
d="M519 224c0 -137 -109 -238 -227 -238c-66 0 -128 31 -158 50l-37 -59l-19 4c3 40 4 113 4 185v476c0 22 -11 47 -27 57c-12 8 -48 16 -66 17v19l177 11l7 -7v-334l3 -1c23 25 72 61 135 61c115 0 208 -94 208 -241zM417 223c0 100 -39 201 -140 201
c-48 0 -80 -19 -104 -47v-279c11 -32 43 -91 111 -91c76 0 133 79 133 216z" />
    <glyph glyph-name="c" unicode="c" horiz-adv-x="435" 
d="M434 107c-37 -66 -106 -119 -185 -119c-145 0 -217 102 -217 240c0 123 85 237 222 237c103 0 155 -55 155 -116c0 -33 -17 -56 -52 -56c-20 0 -56 11 -56 50c0 42 13 43 13 62c-5 29 -25 36 -60 36c-59 0 -121 -53 -121 -204c0 -117 52 -205 140 -205
c71 0 109 31 142 89z" />
    <glyph glyph-name="d" unicode="d" horiz-adv-x="565" 
d="M557 9l-168 -11l-7 7v43l-4 1c-22 -23 -70 -62 -133 -62c-117 0 -213 95 -213 245c0 137 110 233 228 233c63 0 109 -22 121 -27v198c-2 21 -10 47 -26 58c-17 12 -61 21 -88 23v18l198 11l7 -7v-649c2 -21 10 -38 26 -49c12 -8 41 -12 59 -13v-19zM381 77v283
c-11 34 -44 83 -113 83c-76 0 -134 -85 -134 -222c0 -100 44 -195 145 -195c48 0 76 23 102 51z" />
    <glyph glyph-name="e" unicode="e" horiz-adv-x="456" 
d="M439 109c-35 -71 -102 -121 -186 -121c-151 0 -221 110 -221 242c0 120 77 235 210 235c137 0 187 -90 187 -192v-9h-298v-11c0 -129 42 -221 149 -221c78 0 103 28 141 89zM332 288c0 72 -15 154 -91 154c-63 0 -107 -62 -110 -156z" />
    <glyph glyph-name="f" unicode="f" horiz-adv-x="318" 
d="M425 659c0 -19 -19 -52 -54 -52c-23 0 -58 11 -58 45c0 15 6 31 6 53c-4 12 -13 19 -24 19c-63 0 -94 -60 -99 -213c0 -15 -1 -44 -1 -61h126v-42h-126v-331c0 -21 9 -38 27 -45c15 -6 47 -11 65 -12v-20h-254v20c18 1 30 3 44 7c19 6 27 23 27 45v336h-102v42h102v31
c0 83 19 153 68 205c41 44 96 61 147 61c75 0 106 -45 106 -88z" />
    <glyph glyph-name="g" unicode="g" horiz-adv-x="508" 
d="M511 417c0 -29 -15 -49 -42 -49c-33 0 -43 22 -43 64c-33 0 -47 -6 -62 -17v-7c24 -26 38 -65 38 -95c0 -87 -87 -142 -169 -142h-58c-18 -9 -35 -21 -35 -43c0 -49 58 -47 107 -49c29 -1 91 -5 112 -6c59 -3 128 -52 128 -136c0 -92 -79 -163 -251 -163
c-158 0 -218 46 -218 122c0 56 52 103 158 106v7c-39 11 -105 32 -105 89c0 49 56 68 89 81v6c-70 28 -113 74 -113 133c0 92 80 147 179 147c69 0 124 -30 137 -30c37 23 58 30 101 30c24 0 47 -21 47 -48zM309 316c0 66 -23 127 -86 127c-64 0 -82 -58 -82 -124
c0 -71 33 -125 83 -125c59 0 85 58 85 122zM407 -83c0 23 -4 55 -51 70c-22 3 -65 7 -155 7c-71 -14 -98 -42 -98 -104c0 -40 39 -90 150 -90c97 0 154 39 154 117z" />
    <glyph glyph-name="h" unicode="h" horiz-adv-x="575" 
d="M555 0h-236v20c18 1 33 3 47 7c19 6 27 23 27 45v241c0 69 -40 107 -83 107c-73 0 -114 -47 -125 -70v-273c0 -22 9 -37 27 -45c15 -7 29 -11 47 -12v-20h-236v20c18 1 30 3 44 7c19 6 27 23 27 45v570c-2 21 -11 47 -27 58c-12 8 -49 15 -67 16v19l178 11l7 -7v-356h2
c38 37 78 82 164 82c93 0 134 -63 134 -158v-231c0 -22 8 -37 26 -45c14 -6 26 -10 44 -11v-20z" />
    <glyph glyph-name="i" unicode="i" horiz-adv-x="286" 
d="M204 658c0 -35 -27 -65 -63 -65c-33 0 -61 28 -61 61c0 34 28 63 61 63c37 0 63 -27 63 -59zM266 0h-233v20c18 1 30 3 44 7c19 6 27 25 27 45v287c-2 21 -11 39 -27 50c-12 8 -41 18 -59 19v19l170 11l7 -7v-373c0 -21 9 -38 27 -46c16 -7 31 -11 44 -12v-20z" />
    <glyph glyph-name="j" unicode="j" horiz-adv-x="291" 
d="M213 658c0 -35 -27 -65 -63 -65c-33 0 -61 28 -61 61c0 34 28 63 61 63c37 0 63 -27 63 -59zM206 41c0 -83 -14 -154 -63 -205c-41 -43 -78 -62 -130 -62c-66 0 -103 32 -103 75c0 23 22 53 56 53c27 0 57 -14 57 -49c0 -19 -9 -37 -9 -53c3 -1 18 -3 21 -3
c61 0 80 60 80 214v344c-2 21 -11 42 -27 53c-12 8 -64 20 -82 21v18l193 11l7 -7v-410z" />
    <glyph glyph-name="k" unicode="k" horiz-adv-x="534" 
d="M546 0h-159c-23 77 -94 218 -159 218c-26 0 -35 -8 -43 -15v-126c0 -22 9 -38 27 -45c15 -6 29 -11 47 -12v-20h-236v20c18 1 30 3 44 7c19 6 27 23 27 45v569c-2 24 -11 47 -27 58c-14 10 -49 16 -67 17v19l178 11l7 -7v-514c45 42 117 113 159 158c5 5 13 16 13 22
c0 17 -36 24 -62 27v20h201v-19c-53 -15 -100 -40 -123 -60c-27 -23 -56 -49 -89 -82c101 -47 136 -137 186 -233c7 -14 20 -23 37 -30s35 -9 39 -9v-19z" />
    <glyph glyph-name="l" unicode="l" horiz-adv-x="279" 
d="M257 0h-233v20c18 1 30 3 44 7c19 6 27 23 27 45v567c-2 23 -11 46 -27 57c-12 8 -52 19 -70 20v19l181 11l7 -7v-661c0 -22 9 -38 27 -46c15 -7 26 -11 44 -12v-20z" />
    <glyph glyph-name="m" unicode="m" horiz-adv-x="874" 
d="M857 0h-235v20c18 1 29 3 43 7c19 6 27 23 27 45v242c0 69 -38 106 -81 106c-73 0 -110 -48 -122 -69v-274c0 -22 8 -38 26 -46c14 -6 26 -10 44 -11v-20h-230v20c18 1 27 3 41 7c19 6 27 23 27 45v242c0 69 -38 106 -81 106c-73 0 -110 -49 -122 -70v-272
c0 -22 9 -38 27 -46c15 -7 27 -11 45 -12v-20h-234v20c18 1 30 3 44 7c19 6 27 23 27 45v289c-2 21 -11 38 -27 49c-12 8 -33 17 -51 18v19l161 11l7 -7v-69h3c39 38 75 83 161 83c62 0 106 -34 129 -86c41 39 80 86 166 86c93 0 132 -68 132 -163v-225c0 -22 8 -38 26 -46
c14 -6 29 -10 47 -11v-20z" />
    <glyph glyph-name="n" unicode="n" horiz-adv-x="584" 
d="M564 0h-236v20c18 1 33 3 47 7c19 6 27 23 27 45v241c0 69 -40 107 -83 107c-73 0 -114 -47 -125 -70v-273c0 -22 9 -37 27 -45c15 -7 30 -11 47 -12v-20h-236v20c18 1 30 3 44 7c19 6 27 23 27 45v287c-2 21 -11 42 -27 53c-12 8 -31 15 -49 16v19l160 11l7 -7v-68h2
c38 37 76 82 162 82c93 0 136 -63 136 -158v-231c0 -22 8 -37 26 -45c14 -6 26 -10 44 -11v-20z" />
    <glyph glyph-name="o" unicode="o" horiz-adv-x="523" 
d="M492 231c0 -133 -84 -245 -235 -245c-120 0 -226 91 -226 238c0 142 93 241 233 241s228 -101 228 -234zM391 230c0 105 -31 212 -128 212c-104 0 -131 -115 -131 -210c0 -119 37 -223 131 -223c89 0 128 101 128 221z" />
    <glyph glyph-name="p" unicode="p" horiz-adv-x="563" 
d="M531 222c0 -137 -109 -234 -227 -234c-58 0 -92 14 -115 31h-4v-163c0 -22 10 -40 28 -47c15 -6 51 -14 69 -15v-20h-269v20c18 1 41 5 55 9c19 6 26 25 26 47v511c-2 21 -10 39 -26 50c-12 8 -37 16 -55 17v19l164 11l7 -6v-51l4 -1c23 25 72 65 135 65
c115 0 208 -96 208 -243zM429 223c0 100 -39 201 -140 201c-48 0 -80 -22 -104 -50v-285c11 -32 45 -80 111 -80c76 0 133 77 133 214z" />
    <glyph glyph-name="q" unicode="q" horiz-adv-x="551" 
d="M558 -226h-260v20c18 1 42 5 56 9c20 6 27 25 27 47v195l-3 1c-22 -23 -70 -58 -133 -58c-117 0 -213 95 -213 244c0 137 112 233 230 233c80 0 129 -35 151 -47l49 61l18 -4c-2 -40 -8 -133 -8 -175v-442c0 -22 9 -41 27 -49c16 -7 41 -13 59 -15v-20zM381 73v287
c-11 34 -44 84 -113 84c-76 0 -134 -86 -134 -223c0 -100 44 -194 145 -194c48 0 76 18 102 46z" />
    <glyph glyph-name="r" unicode="r" horiz-adv-x="395" 
d="M394 402c0 -35 -19 -63 -53 -63c-32 0 -54 14 -54 48c0 10 7 18 7 31c-51 0 -88 -43 -100 -65v-276c0 -22 9 -38 27 -45c17 -7 46 -11 65 -12v-20h-254v20c18 1 30 3 44 7c19 6 27 23 27 45v287c-2 21 -11 42 -27 53c-12 8 -31 15 -49 16v19l160 11l7 -7v-68h2
c43 55 93 80 135 80c31 0 63 -28 63 -61z" />
    <glyph glyph-name="s" unicode="s" horiz-adv-x="401" 
d="M367 129c0 -89 -74 -143 -168 -143c-49 0 -102 23 -119 40l-10 -31h-33l-5 155h21c11 -49 71 -140 151 -140c70 0 94 37 94 86c0 52 -39 73 -117 96c-64 19 -136 56 -136 142c0 74 57 131 150 131c39 0 79 -9 104 -26l8 27h31l7 -138h-21c-10 57 -61 114 -132 114
c-61 0 -78 -35 -78 -72c0 -57 34 -68 117 -95c82 -27 136 -64 136 -146z" />
    <glyph glyph-name="t" unicode="t" horiz-adv-x="345" 
d="M345 124c-8 -72 -55 -134 -129 -134c-82 0 -121 49 -121 138v279h-96v43h98v155h87v-155h137v-43h-136v-267c0 -57 16 -94 77 -94c51 0 55 40 61 78h22z" />
    <glyph glyph-name="u" unicode="u" horiz-adv-x="567" 
d="M547 9l-157 -11l-7 7v61h-3c-38 -38 -74 -78 -160 -78c-93 0 -130 69 -130 163v210c-2 21 -10 39 -26 50c-12 8 -32 15 -50 16v19l161 12l7 -7v-318c0 -69 36 -105 79 -105c73 0 108 47 121 68v268c-2 21 -10 39 -26 50c-12 8 -39 12 -65 13v19l175 12l7 -7v-362
c2 -21 10 -37 26 -48c12 -8 30 -12 48 -13v-19z" />
    <glyph glyph-name="v" unicode="v" horiz-adv-x="467" 
d="M487 433c-19 -3 -63 -27 -76 -56c-41 -91 -73 -171 -117 -276c-15 -34 -26 -64 -39 -108h-35c-70 177 -92 227 -159 389c-12 28 -45 45 -74 49v21h222v-23c-23 -1 -57 -5 -57 -21c0 -1 2 -9 7 -21c19 -51 69 -173 110 -277h3c38 91 68 159 106 258c3 7 5 20 5 28
c-1 20 -58 34 -74 36v20h178v-19z" />
    <glyph glyph-name="w" unicode="w" horiz-adv-x="734" 
d="M758 432c-28 -3 -70 -26 -83 -60c-44 -110 -63 -159 -108 -273c-14 -35 -24 -62 -38 -106h-28c-44 121 -84 226 -123 324c-29 -65 -57 -145 -86 -218c-14 -34 -25 -62 -39 -106h-30c-71 179 -100 251 -158 388c-11 27 -45 47 -73 50v21h216v-23c-23 -1 -53 -5 -53 -21
c0 -1 2 -9 7 -21c20 -51 66 -166 108 -272h3c31 80 62 155 91 235c-2 6 -10 21 -18 38c-13 29 -38 40 -66 43v21h207v-22c-23 -1 -52 -3 -52 -20c0 -1 2 -11 7 -23c19 -51 66 -174 104 -273h3c40 104 67 176 95 258c3 9 5 20 5 26c0 24 -56 34 -71 34v20h180v-20z" />
    <glyph glyph-name="x" unicode="x" horiz-adv-x="471" 
d="M471 0h-217v21c26 2 54 9 54 21c0 5 -9 21 -14 30c-14 22 -47 68 -83 123c-32 -42 -61 -75 -91 -121c-6 -9 -10 -16 -10 -23c0 -20 51 -30 62 -31v-20h-172v19c57 21 84 47 95 61c17 22 56 66 104 132c-36 53 -82 122 -118 174c-26 39 -52 45 -74 45v21h206v-21
c-20 0 -46 -6 -46 -14c0 -6 4 -13 9 -22c12 -19 51 -77 82 -124c31 43 49 68 80 114c3 4 5 12 5 18c0 13 -42 26 -55 29v20h171v-19c-50 -15 -83 -40 -97 -57c-20 -25 -44 -56 -92 -122c48 -70 93 -136 124 -182c18 -28 29 -43 77 -51v-21z" />
    <glyph glyph-name="y" unicode="y" horiz-adv-x="462" 
d="M483 433c-19 -3 -60 -27 -74 -56c-23 -53 -71 -170 -110 -263c-27 -67 -48 -121 -52 -129c-89 -202 -125 -211 -185 -211c-27 0 -74 18 -74 68c0 26 22 58 57 58c22 0 52 -10 52 -50v-35c58 14 125 175 125 175c-70 177 -94 230 -161 392c-12 28 -45 45 -74 49v21h219
v-23c-23 -1 -54 -5 -54 -21c0 -1 2 -9 7 -21c19 -51 70 -171 111 -275h2c38 91 66 157 104 256c3 8 6 20 6 28c0 20 -56 34 -72 36v20h173v-19z" />
    <glyph glyph-name="z" unicode="z" horiz-adv-x="437" 
d="M413 0h-389v15l273 411c-71 0 -148 3 -182 -11c-20 -8 -37 -46 -47 -93h-26v130h367v-9l-276 -417c33 -1 58 -1 84 -1s63 1 99 3c27 1 37 19 45 39c6 15 22 60 28 84h24v-151z" />
    <glyph glyph-name="braceleft" unicode="{" horiz-adv-x="430" 
d="M398 -169c-139 0 -222 27 -222 171c0 41 16 87 16 129c0 106 -67 123 -161 130v53c95 8 161 24 161 130c0 42 -16 88 -16 129c0 144 83 171 222 171v-23c-62 -4 -130 -9 -130 -118c0 -40 9 -74 9 -114c0 -140 -83 -170 -178 -189v-25c95 -19 178 -49 178 -189
c0 -40 -9 -74 -9 -114c0 -109 68 -114 130 -118v-23z" />
    <glyph glyph-name="bar" unicode="|" horiz-adv-x="298" 
d="M173 -207h-48v953h48v-953z" />
    <glyph glyph-name="braceright" unicode="}" horiz-adv-x="430" 
d="M399 261c-94 -7 -161 -24 -161 -130c0 -42 16 -88 16 -129c0 -144 -83 -171 -222 -171v23c62 4 130 9 130 118c0 40 -9 74 -9 114c0 140 83 170 178 189v25c-95 19 -178 49 -178 189c0 40 9 74 9 114c0 109 -68 114 -130 118v23c139 0 222 -27 222 -171
c0 -41 -16 -87 -16 -129c0 -106 66 -122 161 -130v-53z" />
    <glyph glyph-name="asciitilde" unicode="~" horiz-adv-x="540" 
d="M484 325c-16 -58 -73 -125 -138 -125c-80 0 -122 44 -173 44s-75 -14 -98 -57l-20 7c16 58 73 125 138 125c75 0 122 -44 173 -44s75 14 98 57z" />
    <glyph glyph-name="exclamdown" unicode="&#xa1;" horiz-adv-x="365" 
d="M247 629c0 -37 -30 -67 -67 -67s-67 30 -67 67s30 66 67 66s67 -29 67 -66zM242 54c0 -37 -25 -68 -62 -68s-62 31 -62 68c0 41 32 226 50 416h26c15 -189 48 -373 48 -416z" />
    <glyph glyph-name="cent" unicode="&#xa2;" horiz-adv-x="480" 
d="M448 182c-37 -66 -106 -119 -185 -119c-19 0 -37 2 -54 5l-43 -183l-23 5l43 184c-94 31 -140 118 -140 229c0 123 84 237 227 237c8 0 15 0 22 -1l31 131l24 -5l-31 -129c80 -13 119 -60 119 -112c0 -33 -17 -56 -52 -56c-20 0 -56 11 -56 50c0 42 13 43 13 62
c-3 18 -12 28 -29 32l-91 -386c18 -12 40 -19 64 -19c71 0 109 31 142 89zM290 516h-17c-65 0 -128 -53 -128 -204c0 -72 22 -133 57 -169z" />
    <glyph glyph-name="sterling" unicode="&#xa3;" horiz-adv-x="807" 
d="M752 528c0 -94 -62 -160 -157 -160c-66 0 -118 53 -118 125c0 26 3 49 17 78l22 -4c-11 -26 -14 -52 -14 -70c0 -57 35 -101 93 -101c60 0 94 50 94 127c0 71 -33 150 -126 150c-103 0 -172 -63 -172 -286c0 -31 -1 -56 -4 -82h160v-23h-161c-3 -29 -11 -62 -15 -81h168
v-22h-172c-13 -48 -36 -91 -54 -121c81 -27 137 -79 230 -79c89 0 113 85 124 152l29 -4c-13 -104 -68 -214 -243 -214c-66 0 -126 36 -189 67c-39 -47 -102 -78 -177 -78c-90 0 -124 40 -124 88c0 60 89 97 181 97c38 0 94 -10 131 -18c3 15 5 28 5 41c0 22 -2 48 -3 69
h-166v22h166l-1 81h-159v23h159c8 238 115 393 281 393c145 0 195 -98 195 -170zM243 -10c-53 25 -109 46 -173 46c-55 0 -78 -28 -78 -57c0 -32 35 -49 94 -49c67 0 124 25 157 60z" />
    <glyph glyph-name="fraction" unicode="&#x2044;" horiz-adv-x="340" 
d="M422 731l-504 -943l-43 21l503 943z" />
    <glyph glyph-name="yen" unicode="&#xa5;" horiz-adv-x="579" 
d="M588 585c-10 -1 -40 -10 -49 -16c-23 -13 -28 -23 -50 -50c-47 -59 -81 -121 -131 -212c-7 -13 -13 -28 -18 -42h154v-23h-160c-2 -11 -3 -21 -3 -31v-41h163v-23h-163v-63c0 -21 11 -40 29 -48c15 -7 57 -13 75 -14v-22h-310v22c18 1 65 5 79 10c18 6 31 25 31 47v68
h-157v23h157v72h-157v23h153c-3 12 -9 26 -17 41c-39 78 -73 138 -109 201c-18 31 -36 52 -57 64c-15 9 -38 13 -55 14v22h282v-22c-30 -2 -87 -8 -87 -27c0 -12 50 -103 127 -239c80 126 133 214 133 228c0 26 -49 35 -88 38v22h228v-22z" />
    <glyph glyph-name="florin" unicode="&#x192;" horiz-adv-x="514" 
d="M522 546c0 -23 -17 -51 -51 -51c-29 0 -56 16 -56 49c0 14 2 27 9 48c-5 8 -11 12 -22 12c-64 0 -109 -65 -133 -208l-10 -59h126l-7 -33h-124c-19 -112 -26 -163 -43 -237c-17 -76 -46 -152 -103 -202c-48 -44 -90 -58 -139 -58c-79 0 -108 34 -108 74c0 27 17 51 51 51
c30 0 56 -20 56 -56c0 -17 -7 -32 -15 -41c5 -6 11 -9 18 -9c74 0 114 65 145 213c26 122 32 181 46 265h-106l6 33h105c18 108 47 175 104 232c43 42 90 55 137 55c69 0 114 -37 114 -78z" />
    <glyph glyph-name="section" unicode="&#xa7;" horiz-adv-x="570" 
d="M495 177c0 -83 -69 -113 -133 -123c24 -36 44 -79 44 -132c0 -78 -70 -149 -158 -149c-84 0 -124 64 -124 101c0 44 23 68 60 68c26 0 51 -15 51 -47c0 -36 -40 -31 -40 -57c0 -28 19 -42 60 -42c55 0 81 41 81 112c0 48 -15 73 -54 124c-38 51 -76 82 -131 148
c-49 58 -76 97 -76 159c0 81 69 121 130 129c-22 33 -40 72 -40 122c0 78 71 148 160 148c81 0 117 -63 117 -100c0 -44 -23 -68 -60 -68c-26 0 -51 15 -51 47c0 38 42 34 42 57c0 27 -16 40 -58 40c-54 0 -84 -36 -84 -103c0 -49 19 -73 57 -124s72 -83 128 -149
c51 -60 79 -99 79 -161zM429 155c0 33 -22 69 -47 99c-68 82 -126 145 -165 196c-43 -8 -80 -25 -80 -89c0 -28 24 -69 49 -99c66 -80 125 -135 164 -191c41 11 79 32 79 84z" />
    <glyph glyph-name="currency" unicode="&#xa4;" horiz-adv-x="575" 
d="M427 339h-266v22c15 1 59 2 70 6c14 4 24 17 24 32v284c-9 -2 -22 -3 -36 -3c-26 0 -61 20 -90 41l8 15c24 -9 52 -16 84 -16c45 0 88 17 112 29h14c-6 -29 -11 -71 -11 -102v-245c0 -14 9 -27 23 -32c12 -5 54 -8 68 -9v-22zM527 240h-479v41h479v-41zM493 -98l-58 -127
h-312v26c88 57 136 88 187 134c62 60 74 94 74 150c0 53 -41 75 -81 75c-73 0 -125 -58 -125 -106c0 -25 7 -41 46 -41c35 0 58 34 74 55l15 -13c-23 -35 -69 -82 -127 -82c-34 0 -67 21 -67 64c0 60 83 147 192 147c91 0 158 -50 158 -111c0 -84 -50 -129 -202 -201
c-12 -7 -38 -22 -52 -33h180c35 0 57 33 82 71z" />
    <glyph glyph-name="quotesingle" unicode="'" horiz-adv-x="196" 
d="M153 682c0 -26 -18 -67 -43 -210h-26c-22 144 -41 182 -41 210c0 30 19 55 55 55s55 -25 55 -55z" />
    <glyph glyph-name="quotedblleft" unicode="&#x201c;" horiz-adv-x="354" 
d="M333 713c-53 -31 -91 -61 -97 -125h25c49 0 62 -27 62 -56c0 -27 -21 -56 -57 -56c-56 0 -75 40 -75 100c0 86 86 134 130 159zM164 713c-53 -31 -91 -61 -97 -125h25c49 0 62 -27 62 -56c0 -27 -21 -56 -57 -56c-56 0 -75 40 -75 100c0 86 86 134 130 159z" />
    <glyph glyph-name="guillemotleft" unicode="&#xab;" horiz-adv-x="560" 
d="M504 28l-16 -13c-92 74 -169 137 -207 167c-17 13 -22 15 -22 42c0 24 5 28 20 40c34 26 119 92 209 168l16 -13l-157 -197zM295 28l-16 -13c-92 74 -169 137 -207 167c-17 13 -22 15 -22 42c0 24 5 28 20 40c34 26 119 92 209 168l16 -13l-157 -197z" />
    <glyph glyph-name="guilsinglleft" unicode="&#x2039;" horiz-adv-x="351" 
d="M295 28l-16 -13c-92 74 -169 137 -207 167c-17 13 -22 15 -22 42c0 24 5 28 20 40c34 26 119 92 209 168l16 -13l-157 -197z" />
    <glyph glyph-name="guilsinglright" unicode="&#x203a;" horiz-adv-x="351" 
d="M301 224c0 -27 -5 -29 -22 -42c-38 -30 -115 -93 -207 -167l-16 13l157 194l-157 197l16 13c90 -76 175 -142 209 -168c15 -12 20 -16 20 -40z" />
    <glyph glyph-name="fi" unicode="&#xfb01;" horiz-adv-x="578" 
d="M555 0h-230v20c18 1 27 3 41 7c19 6 27 23 27 45v292c-2 20 -5 36 -14 50h-184v-337c0 -22 9 -38 27 -45c15 -6 32 -11 50 -12v-20h-239v20c18 1 30 3 44 7c19 6 27 23 27 45v339h-102v39h102v31c0 83 27 150 75 202c29 31 84 64 147 64c124 0 156 -49 156 -106
c0 -21 -14 -57 -53 -57c-21 0 -56 11 -56 45c0 33 13 45 16 53c-1 15 -8 42 -69 42s-125 -59 -125 -213v-61h161l121 8l7 -7v-373c0 -22 9 -39 27 -46c15 -6 26 -11 44 -12v-20z" />
    <glyph glyph-name="fl" unicode="&#xfb02;" horiz-adv-x="579" 
d="M558 0h-231v20c18 1 28 3 42 7c19 6 28 23 28 45v521c-14 4 -32 13 -32 36c0 32 24 44 26 49c-2 15 -11 47 -72 47s-124 -60 -124 -214v-61h123v-41h-123v-332c0 -22 9 -38 27 -45c15 -6 32 -11 50 -12v-20h-239v20c18 1 30 3 44 7c19 6 27 23 27 45v337h-102v41h102v31
c0 83 27 150 75 202c29 31 83 64 146 64c50 0 79 -11 104 -23l51 22l7 -7v-661c0 -22 9 -38 27 -46c15 -7 26 -11 44 -12v-20z" />
    <glyph glyph-name="endash" unicode="&#x2013;" horiz-adv-x="542" 
d="M492 235h-442v61h442v-61z" />
    <glyph glyph-name="dagger" unicode="&#x2020;" horiz-adv-x="412" 
d="M373 506c0 -28 -21 -45 -47 -45c-30 0 -53 46 -76 46c-13 0 -13 -10 -15 -33c-6 -109 -16 -261 -18 -374h-21c-3 112 -12 265 -19 374c-2 23 -2 33 -15 33c-23 0 -46 -46 -76 -46c-26 0 -46 17 -46 45c0 17 13 31 30 31c15 0 29 -12 33 -30c15 2 37 21 56 21
c16 0 28 -3 36 -11c-3 48 -25 111 -25 140c0 20 12 41 36 41s36 -21 36 -41c0 -29 -22 -93 -26 -140c10 8 21 11 37 11c19 0 41 -19 56 -21c4 18 18 30 34 30c17 0 30 -14 30 -31z" />
    <glyph glyph-name="daggerdbl" unicode="&#x2021;" horiz-adv-x="442" 
d="M380 569c0 -21 -12 -35 -38 -35c-30 0 -45 24 -77 24c-14 0 -16 -16 -19 -37c-2 -21 -12 -108 -14 -154h-21c-2 46 -12 133 -15 154s-4 37 -19 37c-32 0 -47 -24 -77 -24c-26 0 -38 14 -38 35c0 17 13 30 30 30c16 0 30 -12 34 -30c14 2 26 10 48 10c15 0 27 -3 36 -11
c-5 25 -24 61 -24 90c0 20 11 40 35 40s35 -20 35 -40c0 -29 -19 -66 -24 -90c9 8 21 11 36 11c23 0 35 -8 49 -10c4 18 17 30 33 30c17 0 30 -13 30 -30zM380 133c0 -17 -13 -30 -30 -30c-16 0 -29 12 -33 31c-14 -3 -26 -11 -49 -11c-15 0 -27 3 -36 11
c5 -24 24 -61 24 -90c0 -20 -11 -40 -35 -40s-35 20 -35 40c0 29 19 65 24 90c-9 -8 -21 -11 -36 -11c-22 0 -34 8 -48 11c-4 -19 -18 -31 -34 -31c-17 0 -30 13 -30 30c0 21 12 35 38 35c30 0 45 -23 77 -23c15 0 16 15 19 37c3 20 13 107 15 154h21c2 -47 12 -134 14 -154
c3 -22 5 -37 19 -37c32 0 47 23 77 23c26 0 38 -14 38 -35z" />
    <glyph glyph-name="periodcentered" unicode="&#xb7;" horiz-adv-x="290" 
d="M214 272c0 -37 -31 -67 -68 -67s-68 30 -68 67s31 68 68 68s68 -31 68 -68z" />
    <glyph glyph-name="paragraph" unicode="&#xb6;" horiz-adv-x="619" 
d="M603 661h-142v-786h-28v786h-96v-786h-28v467h-30c-178 0 -221 88 -221 168c0 75 47 173 186 173h359v-22z" />
    <glyph glyph-name="bullet" unicode="&#x2022;" horiz-adv-x="412" 
d="M342 325c0 -74 -62 -134 -136 -134s-136 60 -136 134s62 136 136 136s136 -62 136 -136z" />
    <glyph glyph-name="quotesinglbase" unicode="&#x201a;" horiz-adv-x="185" 
d="M174 17c0 -86 -85 -135 -129 -160l-14 23c53 31 91 58 97 122h-25c-49 0 -65 30 -65 59c0 27 22 56 58 56c56 0 78 -40 78 -100z" />
    <glyph glyph-name="quotedblbase" unicode="&#x201e;" horiz-adv-x="354" 
d="M342 14c0 -86 -86 -134 -130 -159l-12 22c53 31 91 61 97 125h-25c-49 0 -62 27 -62 56c0 27 21 56 57 56c56 0 75 -40 75 -100zM173 14c0 -86 -86 -134 -130 -159l-12 22c53 31 91 61 97 125h-25c-49 0 -62 27 -62 56c0 27 21 56 57 56c56 0 75 -40 75 -100z" />
    <glyph glyph-name="quotedblright" unicode="&#x201d;" horiz-adv-x="354" 
d="M342 637c0 -86 -86 -134 -130 -159l-12 22c53 31 91 61 97 125h-25c-49 0 -62 27 -62 56c0 27 21 56 57 56c56 0 75 -40 75 -100zM173 637c0 -86 -86 -134 -130 -159l-12 22c53 31 91 61 97 125h-25c-49 0 -62 27 -62 56c0 27 21 56 57 56c56 0 75 -40 75 -100z" />
    <glyph glyph-name="guillemotright" unicode="&#xbb;" horiz-adv-x="560" 
d="M510 224c0 -27 -5 -29 -22 -42c-38 -30 -115 -93 -207 -167l-16 13l157 194l-157 197l16 13c90 -76 175 -142 209 -168c15 -12 20 -16 20 -40zM301 224c0 -27 -5 -29 -22 -42c-38 -30 -115 -93 -207 -167l-16 13l157 194l-157 197l16 13c90 -76 175 -142 209 -168
c15 -12 20 -16 20 -40z" />
    <glyph glyph-name="ellipsis" unicode="&#x2026;" horiz-adv-x="822" 
d="M749 55c0 -35 -29 -63 -64 -63s-64 28 -64 63s29 64 64 64s64 -29 64 -64zM475 55c0 -35 -29 -63 -64 -63s-64 28 -64 63s29 64 64 64s64 -29 64 -64zM201 55c0 -35 -29 -63 -64 -63s-64 28 -64 63s29 64 64 64s64 -29 64 -64z" />
    <glyph glyph-name="perthousand" unicode="&#x2030;" horiz-adv-x="1267" 
d="M1202 143c0 -88 -80 -157 -161 -157c-82 0 -157 56 -157 156c0 92 81 162 157 162c81 0 161 -51 161 -161zM813 143c0 -88 -80 -157 -161 -157c-82 0 -157 56 -157 156c0 92 81 162 157 162c81 0 161 -51 161 -161zM667 675l-429 -773l-29 15l427 773zM383 459
c0 -87 -80 -157 -161 -157c-82 0 -157 55 -157 156c0 93 81 162 157 162c81 0 161 -52 161 -161zM1123 141c0 86 -29 139 -81 139s-80 -58 -80 -134c0 -81 27 -136 82 -136c43 0 79 49 79 131zM734 141c0 86 -29 139 -81 139s-80 -58 -80 -134c0 -81 27 -136 82 -136
c43 0 79 49 79 131zM304 457c0 88 -29 139 -81 139s-80 -55 -80 -134c0 -82 27 -136 82 -136c43 0 79 47 79 131z" />
    <glyph glyph-name="questiondown" unicode="&#xbf;" horiz-adv-x="482" 
d="M354 629c0 -37 -30 -67 -67 -67s-67 30 -67 67s30 66 67 66s67 -29 67 -66zM429 102c0 -50 -62 -102 -167 -102c-141 0 -212 86 -212 200c0 113 94 193 221 209l4 96h29v-172c-77 -11 -160 -36 -160 -141c0 -125 53 -165 120 -165c27 0 55 6 67 21c-3 20 -9 19 -9 59
c0 35 37 52 56 52c35 0 51 -25 51 -57z" />
    <glyph glyph-name="grave" unicode="`" 
d="M358 536l-14 -12c-80 64 -118 90 -148 114c-24 19 -36 30 -36 55c0 19 17 38 40 38c25 0 42 -10 61 -43c22 -37 46 -78 97 -152z" />
    <glyph glyph-name="acute" unicode="&#xb4;" 
d="M340 693c0 -25 -12 -36 -36 -55c-30 -24 -68 -50 -148 -114l-14 12c51 74 75 115 97 152c19 33 36 43 61 43c23 0 40 -19 40 -38z" />
    <glyph glyph-name="circumflex" unicode="&#x2c6;" 
d="M407 540l-15 -12l-143 134l-141 -134l-15 12c53 77 90 134 114 171c13 19 15 22 44 22s30 -3 41 -20c25 -36 62 -95 115 -173z" />
    <glyph glyph-name="tilde" unicode="&#x2dc;" 
d="M444 690c-13 -48 -63 -125 -128 -125c-81 0 -105 54 -161 54c-42 0 -55 -23 -81 -68l-19 8c16 46 61 125 125 125c77 0 107 -54 156 -54c61 0 68 25 88 67z" />
    <glyph glyph-name="macron" unicode="&#xaf;" 
d="M415 596h-330v62h330v-62z" />
    <glyph glyph-name="breve" unicode="&#x2d8;" 
d="M404 720c-37 -138 -100 -181 -154 -181s-117 43 -154 181l19 6c31 -67 74 -111 135 -111s104 44 135 111z" />
    <glyph glyph-name="dotaccent" unicode="&#x2d9;" 
d="M309 659c0 -33 -26 -61 -59 -61c-32 0 -58 26 -58 57c0 32 26 59 58 59c34 0 59 -26 59 -55z" />
    <glyph glyph-name="dieresis" unicode="&#xa8;" 
d="M417 649c0 -33 -26 -61 -59 -61c-32 0 -58 26 -58 57c0 32 26 59 58 59c34 0 59 -26 59 -55zM200 649c0 -33 -26 -61 -60 -61c-31 0 -57 26 -57 57c0 32 26 59 57 59c35 0 60 -26 60 -55z" />
    <glyph glyph-name="ring" unicode="&#x2da;" 
d="M355 629c0 -57 -44 -98 -105 -98c-62 0 -105 39 -105 98c0 58 48 98 105 98c59 0 105 -39 105 -98zM310 629c0 43 -22 75 -60 75c-37 0 -60 -29 -60 -75c0 -44 22 -75 60 -75s60 30 60 75z" />
    <glyph glyph-name="cedilla" unicode="&#xb8;" 
d="M349 -131c0 -87 -105 -96 -208 -96v26c62 0 136 -5 136 52c0 36 -46 37 -85 37v120h28v-63c56 0 129 -12 129 -76z" />
    <glyph glyph-name="hungarumlaut" unicode="&#x2dd;" 
d="M424 703c0 -25 -13 -36 -36 -55c-28 -24 -63 -50 -139 -114l-12 12c50 74 74 115 96 152c19 33 34 43 57 43c20 0 34 -19 34 -38zM243 703c0 -25 -13 -36 -36 -55c-28 -24 -63 -50 -139 -114l-12 12c50 74 74 115 96 152c19 33 34 43 57 43c20 0 34 -19 34 -38z" />
    <glyph glyph-name="ogonek" unicode="&#x2db;" 
d="M339 -226c-121 1 -192 21 -192 83c0 56 41 99 123 143h32c-54 -53 -76 -97 -76 -136c0 -43 27 -58 113 -65v-25z" />
    <glyph glyph-name="caron" unicode="&#x2c7;" 
d="M407 732c-53 -77 -90 -134 -114 -171c-13 -19 -15 -22 -44 -22s-30 3 -41 20c-25 36 -62 95 -115 173l15 12l143 -134l141 134z" />
    <glyph glyph-name="emdash" unicode="&#x2014;" horiz-adv-x="930" 
d="M856 225h-782v59h782v-59z" />
    <glyph glyph-name="AE" unicode="&#xc6;" horiz-adv-x="940" 
d="M916 192l-13 -192h-577v22c18 1 66 7 79 12c24 9 31 27 31 49v191h-227c-25 -43 -61 -110 -76 -142c-11 -22 -19 -42 -21 -56c-7 -36 69 -52 103 -54v-22h-275v22c19 1 54 9 74 19c26 14 49 43 70 78c97 164 200 348 304 530c-17 6 -61 11 -83 12v22h557v-155h-27
c-11 44 -64 118 -107 124c-24 3 -51 4 -83 4h-103v-288h72c56 0 72 19 84 31c15 15 28 66 31 92h27v-279h-27c-2 29 -19 84 -31 97c-13 14 -30 31 -84 31h-72v-220c0 -82 18 -91 119 -91c70 0 125 -2 149 23c30 31 71 110 81 140h25zM436 305v340h-15l-193 -340h208z" />
    <glyph glyph-name="ordfeminine" unicode="&#xaa;" horiz-adv-x="328" 
d="M298 439c-4 -51 -23 -71 -57 -71c-25 0 -38 12 -46 37h1c-20 -23 -46 -38 -78 -38c-38 0 -63 23 -63 57c0 44 26 60 52 70c29 12 65 20 87 31v28c0 10 -3 51 -43 51c-18 0 -25 -10 -30 -15c0 -9 5 -20 5 -31c0 -12 -13 -24 -32 -24s-26 14 -26 29c0 32 45 57 86 57
c52 0 92 -8 92 -79c0 -46 -4 -100 -4 -117c0 -7 7 -24 23 -24s18 20 19 39h14zM285 266h-226v26h226v-26zM194 507c-49 -17 -85 -31 -85 -74c0 -27 13 -40 34 -40c26 0 37 12 48 26z" />
    <glyph glyph-name="Lslash" unicode="&#x141;" horiz-adv-x="629" 
d="M631 194l-15 -194h-571v22c18 1 59 6 72 11c24 9 31 28 31 50v215l-83 -30l-10 26l93 34v264c0 22 -6 39 -31 50c-18 8 -54 18 -72 19v22h313v-22c-18 -1 -55 -8 -73 -14c-25 -8 -31 -28 -31 -50v-230l163 59l10 -27l-173 -63v-217c0 -85 11 -92 119 -92
c58 0 127 5 147 26c26 28 77 107 87 141h24z" />
    <glyph glyph-name="Oslash" unicode="&#xd8;" horiz-adv-x="775" 
d="M737 346c0 -104 -31 -195 -104 -266c-65 -60 -146 -96 -249 -96c-83 0 -160 28 -222 79l-90 -102l-25 19l91 104c-62 62 -100 145 -100 250c0 109 32 196 97 261c68 69 156 104 253 104c82 0 156 -23 224 -78l90 102l26 -20l-92 -103c58 -50 101 -153 101 -254zM564 567
c-36 60 -93 101 -176 101c-142 0 -229 -122 -229 -329c0 -71 12 -137 36 -191zM616 343c0 68 -11 136 -36 193l-370 -418c38 -64 96 -103 178 -103c155 0 228 142 228 328z" />
    <glyph glyph-name="OE" unicode="&#x152;" horiz-adv-x="1023" 
d="M995 192l-13 -192h-426c-67 0 -135 -1 -200 -2c-80 0 -162 31 -220 90c-59 60 -98 141 -98 246s31 188 89 251c61 66 148 100 233 100c83 0 132 -2 196 -2h390v-155h-27c-11 44 -64 118 -107 124c-24 3 -51 4 -83 4h-103v-288h72c56 0 72 19 84 31c15 15 28 66 31 92h27
v-279h-27c-2 29 -19 85 -31 98c-13 14 -30 30 -84 30h-72v-220c0 -82 18 -91 119 -91c70 0 120 -2 144 23c30 31 66 94 81 140h25zM532 343c0 105 2 226 -42 270c-30 30 -65 43 -120 43c-140 0 -212 -118 -212 -317c0 -171 58 -313 212 -313c70 0 89 14 115 36
c42 35 47 179 47 281z" />
    <glyph glyph-name="ordmasculine" unicode="&#xba;" horiz-adv-x="346" 
d="M296 495c0 -72 -45 -131 -125 -131c-65 0 -121 49 -121 127c0 76 49 129 124 129s122 -54 122 -125zM286 266h-226v26h226v-26zM237 494c0 53 -15 107 -63 107c-52 0 -66 -58 -66 -106c0 -59 18 -112 66 -112c45 0 63 51 63 111z" />
    <glyph glyph-name="ae" unicode="&#xe6;" horiz-adv-x="720" 
d="M701 107c-35 -71 -101 -119 -185 -119c-86 0 -141 37 -177 94h-3c-50 -69 -109 -94 -180 -94s-119 42 -119 106c0 82 49 110 101 129c59 22 127 39 169 63v56c0 18 -4 101 -87 101c-38 0 -56 -21 -65 -32c0 -15 9 -37 9 -59c0 -21 -22 -43 -58 -43c-33 0 -45 26 -45 52
c0 60 89 104 165 104c64 0 120 -13 151 -53c33 29 79 53 131 53c137 0 186 -94 186 -195v-7h-297v-16c0 -127 44 -215 147 -215c80 0 101 26 139 87zM593 287c0 68 -10 155 -86 155c-63 0 -99 -60 -110 -157zM308 86v171c-100 -31 -174 -59 -174 -148c0 -55 27 -81 71 -81
c54 0 79 28 103 58z" />
    <glyph glyph-name="dotlessi" unicode="&#x131;" horiz-adv-x="286" 
d="M266 0h-233v20c18 1 30 3 44 7c19 6 27 23 27 45v287c-2 21 -11 39 -27 50c-12 8 -41 18 -59 19v19l170 11l7 -7v-373c0 -20 7 -37 27 -46c14 -6 27 -11 44 -12v-20z" />
    <glyph glyph-name="lslash" unicode="&#x142;" horiz-adv-x="309" 
d="M287 354l-86 -31v-245c0 -22 9 -38 27 -46c15 -7 26 -11 44 -12v-20h-233v20c18 1 30 3 44 7c19 6 27 23 27 45v217l-70 -25l-10 26l80 29v320c-2 23 -11 46 -27 57c-12 8 -52 19 -70 20v19l181 11l7 -7v-386l76 28z" />
    <glyph glyph-name="oslash" unicode="&#xf8;" horiz-adv-x="523" 
d="M492 231c0 -133 -84 -245 -235 -245c-52 0 -102 17 -141 49l-58 -69l-23 16l60 72c-39 41 -64 99 -64 170c0 142 93 241 233 241c55 0 102 -15 138 -42l62 73l24 -17l-63 -75c43 -43 67 -103 67 -173zM363 375c-19 40 -52 67 -100 67c-104 0 -131 -115 -131 -210
c0 -42 5 -82 15 -116zM391 230c0 40 -4 80 -15 115l-218 -260c20 -46 54 -76 105 -76c89 0 128 101 128 221z" />
    <glyph glyph-name="oe" unicode="&#x153;" horiz-adv-x="809" 
d="M790 108c-34 -71 -101 -120 -184 -120c-73 0 -132 32 -170 83c-41 -50 -104 -85 -179 -85c-119 0 -226 91 -226 238c0 142 94 241 233 241c71 0 133 -32 174 -81c36 46 93 81 158 81c136 0 187 -93 187 -194v-7h-301v-17c0 -127 48 -215 150 -215c79 0 102 27 140 88z
M682 288c0 65 -11 154 -87 154c-62 0 -112 -74 -112 -156zM387 230c0 105 -28 213 -124 213c-103 0 -131 -116 -131 -211c0 -119 38 -224 131 -224c88 0 124 102 124 222z" />
    <glyph glyph-name="germandbls" unicode="&#xdf;" horiz-adv-x="587" 
d="M561 139c0 -80 -70 -153 -155 -153c-98 0 -141 48 -141 103c0 36 23 59 56 59c27 0 45 -20 45 -44c0 -23 -17 -32 -17 -51s15 -44 63 -44c50 0 82 35 82 86c0 43 -13 68 -98 134c-52 41 -96 83 -96 137c0 82 105 78 105 225c0 90 -44 133 -99 133
c-67 0 -105 -60 -110 -213c0 -15 -1 -34 -1 -51v-460h-166v20c18 1 34 3 48 7c19 6 27 23 27 45v336h-84v42h84v31c0 83 19 153 68 205c41 44 96 61 147 61c81 0 159 -48 159 -130c0 -135 -111 -137 -111 -195c0 -28 5 -51 94 -123c71 -57 100 -86 100 -160z" />
    <glyph glyph-name="Zcaron" unicode="&#x17d;" horiz-adv-x="626" 
d="M618 205l-23 -205h-591v12l469 644h-187c-34 0 -61 -1 -81 -5c-54 -11 -116 -101 -136 -152h-24l21 184h539v-12l-469 -644h209c60 0 126 6 147 26c43 40 85 109 102 152h24zM477 923c-53 -77 -90 -134 -114 -171c-13 -19 -15 -22 -44 -22s-30 3 -41 20
c-25 36 -62 95 -115 173l15 12l143 -134l141 134z" />
    <glyph glyph-name="zcaron" unicode="&#x17e;" horiz-adv-x="437" 
d="M413 0h-389v15l273 411c-71 0 -148 3 -182 -11c-20 -8 -37 -46 -47 -93h-26v130h367v-9l-276 -417c33 -1 58 -1 84 -1s63 1 99 3c27 1 37 19 45 39c6 15 22 60 28 84h24v-151zM374 732c-53 -77 -90 -134 -114 -171c-13 -19 -15 -22 -44 -22s-30 3 -41 20
c-25 36 -62 95 -115 173l15 12l143 -134l141 134z" />
    <glyph glyph-name="Scaron" unicode="&#x160;" horiz-adv-x="547" 
d="M510 195c0 -122 -97 -208 -226 -208c-81 0 -134 26 -164 50l-35 -47h-34l-7 234h23c41 -106 105 -207 229 -207c89 0 127 51 127 126c0 61 -38 107 -98 131c-57 23 -87 34 -143 59c-77 34 -118 89 -118 178c0 106 86 185 200 185c52 0 109 -23 144 -50l34 47h34l5 -227
h-22c-40 113 -85 200 -219 200c-29 0 -95 -24 -95 -102c0 -61 33 -96 88 -126c49 -27 91 -36 136 -58c86 -39 141 -79 141 -185zM429 923c-53 -77 -90 -134 -114 -171c-13 -19 -15 -22 -44 -22s-30 3 -41 20c-25 36 -62 95 -115 173l15 12l143 -134l141 134z" />
    <glyph glyph-name="trademark" unicode="&#x2122;" horiz-adv-x="556" 
d="M535 477h-104v10c5 1 23 2 27 4c6 4 8 8 8 15v145l-76 -171h-7c-4 12 -10 29 -16 42l-54 125v-110c0 -23 4 -35 10 -40c5 -5 23 -9 28 -10v-10h-91v10c5 1 20 3 26 8c7 5 10 17 10 40v104c0 12 -3 19 -9 24c-7 5 -17 9 -25 9v11h72l66 -147l51 120c5 11 6 23 7 27h76v-11
c-5 0 -16 -3 -22 -5s-8 -7 -8 -14v-147c0 -7 2 -11 8 -14c4 -2 17 -4 23 -5v-10zM232 626h-8c-4 13 -19 40 -32 42c-7 1 -16 1 -24 1h-11v-163c0 -6 2 -11 8 -14c4 -1 17 -4 23 -5v-10h-101v10c6 1 20 2 24 4c6 3 8 7 8 14v164h-11c-7 0 -17 0 -24 -1
c-13 -2 -29 -29 -33 -42h-8v57h189v-57z" />
    <glyph glyph-name="scaron" unicode="&#x161;" horiz-adv-x="401" 
d="M367 129c0 -89 -74 -143 -168 -143c-49 0 -102 23 -119 40l-10 -31h-33l-5 155h21c11 -49 71 -140 151 -140c70 0 94 37 94 86c0 52 -39 73 -117 96c-64 19 -136 56 -136 142c0 74 57 131 150 131c39 0 79 -9 104 -26l8 27h31l7 -138h-21c-10 57 -61 114 -132 114
c-61 0 -78 -35 -78 -72c0 -57 34 -68 117 -95c82 -27 136 -64 136 -146zM353 732c-53 -77 -90 -134 -114 -171c-13 -19 -15 -22 -44 -22s-30 3 -41 20c-25 36 -62 95 -115 173l15 12l143 -134l141 134z" />
    <glyph glyph-name="Ydieresis" unicode="&#x178;" horiz-adv-x="625" 
d="M660 661c-12 -1 -47 -13 -58 -20c-26 -15 -35 -25 -56 -51c-55 -68 -101 -151 -159 -256c-17 -32 -30 -79 -30 -112v-133c0 -23 8 -40 31 -50c12 -5 64 -16 82 -17v-22h-332v22c18 1 69 7 82 12c24 9 31 28 31 50v174c0 20 -11 45 -26 75c-46 90 -89 170 -132 243
c-17 30 -37 54 -61 68c-18 10 -45 16 -64 17v22h322v-22c-35 -2 -101 -11 -101 -35c0 -14 66 -136 155 -294c93 146 164 265 164 281c0 33 -62 45 -108 48v22h260v-22zM499 810c0 -33 -26 -61 -59 -61c-32 0 -58 26 -58 57c0 32 26 59 58 59c34 0 59 -26 59 -55zM282 810
c0 -33 -26 -61 -60 -61c-31 0 -57 26 -57 57c0 32 26 59 57 59c35 0 60 -26 60 -55z" />
    <glyph glyph-name="copyright" unicode="&#xa9;" horiz-adv-x="942" 
d="M903 251c0 -238 -195 -432 -431 -432c-238 0 -433 194 -433 432c0 236 195 430 433 430c236 0 431 -194 431 -430zM865 251c0 218 -174 395 -393 395c-220 0 -395 -177 -395 -395c0 -221 175 -398 395 -398c219 0 393 177 393 398zM669 153c-31 -69 -88 -140 -191 -140
c-144 0 -239 90 -239 234c0 138 105 243 253 243c37 0 85 -14 109 -31l22 38h27l4 -181h-23c-25 74 -59 144 -158 144c-69 0 -136 -63 -136 -208c0 -119 70 -195 161 -195c83 0 120 47 149 106z" />
    <glyph glyph-name="registered" unicode="&#xae;" horiz-adv-x="474" 
d="M419 521c0 -103 -79 -182 -182 -182s-182 79 -182 182s79 182 182 182s182 -79 182 -182zM399 521c0 93 -69 166 -162 166s-162 -73 -162 -166s69 -166 162 -166s162 73 162 166zM350 465c0 -29 -10 -42 -37 -42c-24 0 -39 17 -43 51c-3 23 -9 49 -44 49h-17v-69
c0 -7 2 -12 9 -15c4 -1 14 -3 20 -3v-10h-94v10c5 0 16 2 20 3c7 3 9 8 9 15v148c0 7 -2 13 -9 15c-6 2 -15 4 -20 4v10h105c30 0 66 -13 66 -46s-36 -46 -58 -52v-3c14 -2 40 -10 46 -32c4 -16 6 -31 10 -45c3 -11 9 -13 14 -13c8 0 13 4 13 25h10zM274 579
c0 34 -18 41 -41 41h-24v-85h16c27 0 49 10 49 44z" />
    <glyph glyph-name="degree" unicode="&#xb0;" horiz-adv-x="410" 
d="M353 560c0 -82 -74 -146 -150 -146c-77 0 -146 50 -146 145c0 88 75 151 146 151c76 0 150 -47 150 -150zM293 558c0 77 -34 121 -89 121s-88 -48 -88 -116c0 -71 33 -119 90 -119c46 0 87 41 87 114z" />
    <glyph glyph-name="plusminus" unicode="&#xb1;" horiz-adv-x="872" 
d="M851 0h-232v20c18 1 29 3 43 7c19 6 28 23 28 45v521c-14 4 -32 12 -32 36c0 32 24 44 26 49c-2 15 -12 47 -73 47s-124 -60 -124 -214v-61h123v-40h-123v-333c0 -22 9 -38 27 -45c15 -6 32 -11 50 -12v-20h-239v20c18 1 30 3 44 7c19 6 27 23 27 45v341h-201v-336
c0 -22 9 -38 27 -45c15 -6 27 -11 45 -12v-20h-234v20c18 1 30 3 44 7c19 6 27 23 27 45v339h-102v39h102v26c0 83 25 147 72 200c29 32 89 64 149 64c77 0 117 -32 133 -72c6 10 65 79 159 79c50 0 80 -11 105 -23l51 22l7 -7v-661c0 -22 9 -38 27 -46c15 -7 26 -11 44 -12
v-20zM413 587c-29 1 -46 16 -46 38c0 33 10 40 13 48c-2 14 -7 44 -62 44c-58 0 -124 -54 -124 -211v-56h204v31c0 39 6 75 15 106z" />
    <glyph glyph-name="mu" unicode="&#xb5;" horiz-adv-x="552" 
d="M545 140c-16 -66 -71 -143 -137 -143c-50 0 -58 70 -58 96c0 15 2 30 4 51h-4c-54 -81 -135 -147 -185 -147c-52 0 -72 45 -78 88h-2c-22 -64 -39 -132 -45 -199c9 -49 31 -58 31 -86c0 -16 -11 -43 -36 -43c-29 0 -46 16 -46 51c0 45 51 234 86 328c19 71 38 143 49 175
c9 24 25 52 57 52c29 0 40 -19 40 -33c0 -33 -66 -91 -99 -201v-25c0 -19 10 -40 31 -40c69 0 163 112 176 133c15 23 34 81 48 114c14 29 25 57 61 57c35 0 42 -17 42 -38c0 -28 -46 -61 -97 -163c-9 -27 -10 -47 -10 -65s4 -42 30 -42c27 0 84 27 126 87z" />
    <glyph glyph-name="onehalf" unicode="&#xbd;" horiz-adv-x="575" 
d="M427 339h-266v22c15 1 59 2 70 6c14 4 24 17 24 32v284c-9 -2 -22 -3 -36 -3c-26 0 -61 20 -90 41l8 15c24 -9 52 -16 84 -16c45 0 88 17 112 29h14c-6 -29 -11 -71 -11 -102v-245c0 -14 9 -27 23 -32c12 -5 54 -8 68 -9v-22zM527 240h-479v41h479v-41zM493 -98l-58 -127
h-312v26c88 57 136 88 187 134c62 60 74 94 74 150c0 53 -41 75 -81 75c-73 0 -125 -58 -125 -106c0 -25 7 -41 46 -41c35 0 58 34 74 55l15 -13c-23 -35 -69 -82 -127 -82c-34 0 -67 21 -67 64c0 60 83 147 192 147c91 0 158 -50 158 -111c0 -84 -50 -129 -202 -201
c-12 -7 -38 -22 -52 -33h180c35 0 57 33 82 71z" />
    <glyph glyph-name="Agrave" unicode="&#xc0;" horiz-adv-x="690" 
d="M715 0h-315v22c35 2 101 14 101 39c0 7 -1 15 -4 23l-62 158h-246c-19 -46 -31 -80 -40 -110c-7 -22 -11 -42 -11 -56c0 -36 78 -52 113 -54v-22h-275v22c19 1 52 9 70 19c24 14 42 43 57 78c71 172 154 384 230 575h38c102 -258 200 -512 237 -605c8 -20 17 -35 41 -49
c18 -10 47 -17 66 -18v-22zM422 275l-111 279l-109 -279h220zM397 738l-14 -12c-80 64 -118 90 -148 114c-24 19 -36 30 -36 55c0 19 17 38 40 38c25 0 42 -10 61 -43c22 -37 46 -78 97 -152z" />
    <glyph glyph-name="Aacute" unicode="&#xc1;" horiz-adv-x="690" 
d="M715 0h-315v22c35 2 101 14 101 39c0 7 -1 15 -4 23l-62 158h-246c-19 -46 -31 -80 -40 -110c-7 -22 -11 -42 -11 -56c0 -36 78 -52 113 -54v-22h-275v22c19 1 52 9 70 19c24 14 42 43 57 78c71 172 154 384 230 575h38c102 -258 200 -512 237 -605c8 -20 17 -35 41 -49
c18 -10 47 -17 66 -18v-22zM422 275l-111 279l-109 -279h220zM500 884c0 -25 -12 -36 -36 -55c-30 -24 -68 -50 -148 -114l-14 12c51 74 75 115 97 152c19 33 36 43 61 43c23 0 40 -19 40 -38z" />
    <glyph glyph-name="Acircumflex" unicode="&#xc2;" horiz-adv-x="690" 
d="M715 0h-315v22c35 2 101 14 101 39c0 7 -1 15 -4 23l-62 158h-246c-19 -46 -31 -80 -40 -110c-7 -22 -11 -42 -11 -56c0 -36 78 -52 113 -54v-22h-275v22c19 1 52 9 70 19c24 14 42 43 57 78c71 172 154 384 230 575h38c102 -258 200 -512 237 -605c8 -20 17 -35 41 -49
c18 -10 47 -17 66 -18v-22zM422 275l-111 279l-109 -279h220zM508 701l-15 -12l-143 134l-141 -134l-15 12c53 77 90 134 114 171c13 19 15 22 44 22s30 -3 41 -20c25 -36 62 -95 115 -173z" />
    <glyph glyph-name="Atilde" unicode="&#xc3;" horiz-adv-x="690" 
d="M715 0h-315v22c35 2 101 14 101 39c0 7 -1 15 -4 23l-62 158h-246c-19 -46 -31 -80 -40 -110c-7 -22 -11 -42 -11 -56c0 -36 78 -52 113 -54v-22h-275v22c19 1 52 9 70 19c24 14 42 43 57 78c71 172 154 384 230 575h38c102 -258 200 -512 237 -605c8 -20 17 -35 41 -49
c18 -10 47 -17 66 -18v-22zM422 275l-111 279l-109 -279h220zM559 861c-13 -48 -63 -125 -128 -125c-81 0 -105 54 -161 54c-42 0 -55 -23 -81 -68l-19 8c16 46 61 125 125 125c77 0 107 -54 156 -54c61 0 68 25 88 67z" />
    <glyph glyph-name="Adieresis" unicode="&#xc4;" horiz-adv-x="690" 
d="M715 0h-315v22c35 2 101 14 101 39c0 7 -1 15 -4 23l-62 158h-246c-19 -46 -31 -80 -40 -110c-7 -22 -11 -42 -11 -56c0 -36 78 -52 113 -54v-22h-275v22c19 1 52 9 70 19c24 14 42 43 57 78c71 172 154 384 230 575h38c102 -258 200 -512 237 -605c8 -20 17 -35 41 -49
c18 -10 47 -17 66 -18v-22zM422 275l-111 279l-109 -279h220zM518 810c0 -33 -26 -61 -59 -61c-32 0 -58 26 -58 57c0 32 26 59 58 59c34 0 59 -26 59 -55zM301 810c0 -33 -26 -61 -60 -61c-31 0 -57 26 -57 57c0 32 26 59 57 59c35 0 60 -26 60 -55z" />
    <glyph glyph-name="Aring" unicode="&#xc5;" horiz-adv-x="690" 
d="M715 0h-315v22c35 2 101 14 101 39c0 7 -1 15 -4 23l-62 158h-246c-19 -46 -31 -80 -40 -110c-7 -22 -11 -42 -11 -56c0 -36 78 -52 113 -54v-22h-275v22c19 1 52 9 70 19c24 14 42 43 57 78c71 172 154 384 230 575h38c102 -258 200 -512 237 -605c8 -20 17 -35 41 -49
c18 -10 47 -17 66 -18v-22zM422 275l-111 279l-109 -279h220zM458 820c0 -57 -44 -98 -105 -98c-62 0 -105 39 -105 98c0 58 48 98 105 98c59 0 105 -39 105 -98zM413 820c0 43 -22 75 -60 75c-37 0 -60 -29 -60 -75c0 -44 22 -75 60 -75s60 30 60 75z" />
    <glyph glyph-name="Ccedilla" unicode="&#xc7;" horiz-adv-x="653" 
d="M641 173c-41 -93 -121 -188 -273 -188h-9v-40c56 0 129 -12 129 -76c0 -87 -105 -96 -208 -96v26c62 0 136 -5 136 52c0 36 -46 37 -85 37v99c-176 15 -294 147 -294 346c0 206 151 363 352 363c55 0 121 -26 151 -54l30 51h41l4 -247h-24c-36 116 -104 221 -233 221
c-102 0 -201 -99 -201 -326c0 -181 109 -304 240 -304c122 0 179 63 218 150z" />
    <glyph glyph-name="Egrave" unicode="&#xc8;" horiz-adv-x="666" 
d="M643 192l-13 -192h-592v22c18 1 64 6 79 12c24 9 31 26 31 49v511c0 22 -6 39 -31 49c-19 8 -61 17 -79 18v22h551v-155h-27c-11 44 -64 118 -107 124c-24 3 -51 4 -83 4h-118v-288h87c56 0 72 19 84 31c15 15 28 66 31 92h27v-279h-27c-2 29 -19 84 -31 97
c-13 14 -30 31 -84 31h-87v-220c0 -82 18 -91 119 -91c70 0 140 -2 164 23c30 31 71 110 81 140h25zM393 727l-14 -12c-80 64 -118 90 -148 114c-24 19 -36 30 -36 55c0 19 17 38 40 38c25 0 42 -10 61 -43c22 -37 46 -78 97 -152z" />
    <glyph glyph-name="Eacute" unicode="&#xc9;" horiz-adv-x="666" 
d="M643 192l-13 -192h-592v22c18 1 64 6 79 12c24 9 31 26 31 49v511c0 22 -6 39 -31 49c-19 8 -61 17 -79 18v22h551v-155h-27c-11 44 -64 118 -107 124c-24 3 -51 4 -83 4h-118v-288h87c56 0 72 19 84 31c15 15 28 66 31 92h27v-279h-27c-2 29 -19 84 -31 97
c-13 14 -30 31 -84 31h-87v-220c0 -82 18 -91 119 -91c70 0 140 -2 164 23c30 31 71 110 81 140h25zM475 884c0 -25 -12 -36 -36 -55c-30 -24 -68 -50 -148 -114l-14 12c51 74 75 115 97 152c19 33 36 43 61 43c23 0 40 -19 40 -38z" />
    <glyph glyph-name="Ecircumflex" unicode="&#xca;" horiz-adv-x="666" 
d="M643 192l-13 -192h-592v22c18 1 64 6 79 12c24 9 31 26 31 49v511c0 22 -6 39 -31 49c-19 8 -61 17 -79 18v22h551v-155h-27c-11 44 -64 118 -107 124c-24 3 -51 4 -83 4h-118v-288h87c56 0 72 19 84 31c15 15 28 66 31 92h27v-279h-27c-2 29 -19 84 -31 97
c-13 14 -30 31 -84 31h-87v-220c0 -82 18 -91 119 -91c70 0 140 -2 164 23c30 31 71 110 81 140h25zM497 731l-15 -12l-143 134l-141 -134l-15 12c53 77 90 134 114 171c13 19 15 22 44 22s30 -3 41 -20c25 -36 62 -95 115 -173z" />
    <glyph glyph-name="Edieresis" unicode="&#xcb;" horiz-adv-x="666" 
d="M643 192l-13 -192h-592v22c18 1 64 6 79 12c24 9 31 26 31 49v511c0 22 -6 39 -31 49c-19 8 -61 17 -79 18v22h551v-155h-27c-11 44 -64 118 -107 124c-24 3 -51 4 -83 4h-118v-288h87c56 0 72 19 84 31c15 15 28 66 31 92h27v-279h-27c-2 29 -19 84 -31 97
c-13 14 -30 31 -84 31h-87v-220c0 -82 18 -91 119 -91c70 0 140 -2 164 23c30 31 71 110 81 140h25zM505 810c0 -33 -26 -61 -59 -61c-32 0 -58 26 -58 57c0 32 26 59 58 59c34 0 59 -26 59 -55zM288 810c0 -33 -26 -61 -60 -61c-31 0 -57 26 -57 57c0 32 26 59 57 59
c35 0 60 -26 60 -55z" />
    <glyph glyph-name="Igrave" unicode="&#xcc;" horiz-adv-x="406" 
d="M360 0h-314v22c18 1 60 5 73 10c24 9 31 26 31 48v515c0 22 -6 38 -31 48c-18 7 -55 17 -73 18v22h314v-22c-18 -1 -55 -7 -73 -13c-25 -8 -31 -26 -31 -48v-515c0 -22 8 -38 31 -48c12 -5 55 -14 73 -15v-22zM253 727l-14 -12c-80 64 -118 90 -148 114
c-24 19 -36 30 -36 55c0 19 17 38 40 38c25 0 42 -10 61 -43c22 -37 46 -78 97 -152z" />
    <glyph glyph-name="Iacute" unicode="&#xcd;" horiz-adv-x="406" 
d="M360 0h-314v22c18 1 60 5 73 10c24 9 31 26 31 48v515c0 22 -6 38 -31 48c-18 7 -55 17 -73 18v22h314v-22c-18 -1 -55 -7 -73 -13c-25 -8 -31 -26 -31 -48v-515c0 -22 8 -38 31 -48c12 -5 55 -14 73 -15v-22zM355 884c0 -25 -12 -36 -36 -55c-30 -24 -68 -50 -148 -114
l-14 12c51 74 75 115 97 152c19 33 36 43 61 43c23 0 40 -19 40 -38z" />
    <glyph glyph-name="Icircumflex" unicode="&#xce;" horiz-adv-x="406" 
d="M360 0h-314v22c18 1 60 5 73 10c24 9 31 26 31 48v515c0 22 -6 38 -31 48c-18 7 -55 17 -73 18v22h314v-22c-18 -1 -55 -7 -73 -13c-25 -8 -31 -26 -31 -48v-515c0 -22 8 -38 31 -48c12 -5 55 -14 73 -15v-22zM360 731l-15 -12l-143 134l-141 -134l-15 12
c53 77 90 134 114 171c13 19 15 22 44 22s30 -3 41 -20c25 -36 62 -95 115 -173z" />
    <glyph glyph-name="Idieresis" unicode="&#xcf;" horiz-adv-x="406" 
d="M360 0h-314v22c18 1 60 5 73 10c24 9 31 26 31 48v515c0 22 -6 38 -31 48c-18 7 -55 17 -73 18v22h314v-22c-18 -1 -55 -7 -73 -13c-25 -8 -31 -26 -31 -48v-515c0 -22 8 -38 31 -48c12 -5 55 -14 73 -15v-22zM380 810c0 -33 -26 -61 -59 -61c-32 0 -58 26 -58 57
c0 32 26 59 58 59c34 0 59 -26 59 -55zM163 810c0 -33 -26 -61 -60 -61c-31 0 -57 26 -57 57c0 32 26 59 57 59c35 0 60 -26 60 -55z" />
    <glyph glyph-name="Eth" unicode="&#xd0;" horiz-adv-x="779" 
d="M742 337c0 -233 -200 -337 -393 -337h-306v22c20 0 61 5 74 10c24 9 31 27 31 49v258h-100v33h100v222c0 22 -7 41 -31 51s-52 15 -70 16v22h322c137 0 373 -72 373 -346zM619 338c0 182 -110 317 -278 317c-23 0 -65 -1 -87 -2v-281h139v-33h-139v-233
c6 -49 32 -77 109 -77c176 0 256 129 256 309z" />
    <glyph glyph-name="Ntilde" unicode="&#xd1;" horiz-adv-x="786" 
d="M791 661c-18 -1 -76 -15 -92 -25c-27 -17 -33 -68 -33 -134v-509h-37l-448 564v-366c0 -76 12 -119 34 -137c17 -14 85 -31 103 -32v-22h-300v22c18 1 82 19 93 27c24 17 33 59 33 137v352c0 29 -12 63 -32 79c-24 19 -80 43 -107 44v22h206l418 -526v339
c0 72 -12 121 -34 135c-19 12 -79 29 -102 30v22h298v-22zM603 871c-13 -48 -63 -125 -128 -125c-81 0 -105 54 -161 54c-42 0 -55 -23 -81 -68l-19 8c16 46 61 125 125 125c77 0 107 -54 156 -54c61 0 68 25 88 67z" />
    <glyph glyph-name="Ograve" unicode="&#xd2;" horiz-adv-x="775" 
d="M737 346c0 -104 -31 -195 -104 -266c-65 -60 -146 -96 -249 -96c-91 0 -174 33 -239 94c-66 62 -107 147 -107 256s32 196 97 261c68 69 156 104 253 104c94 0 179 -31 254 -104c59 -59 95 -151 95 -249zM616 343c0 163 -62 325 -228 325c-142 0 -229 -122 -229 -329
c0 -178 73 -324 229 -324c155 0 228 142 228 328zM443 727l-14 -12c-80 64 -118 90 -148 114c-24 19 -36 30 -36 55c0 19 17 38 40 38c25 0 42 -10 61 -43c22 -37 46 -78 97 -152z" />
    <glyph glyph-name="Oacute" unicode="&#xd3;" horiz-adv-x="775" 
d="M737 346c0 -104 -31 -195 -104 -266c-65 -60 -146 -96 -249 -96c-91 0 -174 33 -239 94c-66 62 -107 147 -107 256s32 196 97 261c68 69 156 104 253 104c94 0 179 -31 254 -104c59 -59 95 -151 95 -249zM616 343c0 163 -62 325 -228 325c-142 0 -229 -122 -229 -329
c0 -178 73 -324 229 -324c155 0 228 142 228 328zM515 884c0 -25 -12 -36 -36 -55c-30 -24 -68 -50 -148 -114l-14 12c51 74 75 115 97 152c19 33 36 43 61 43c23 0 40 -19 40 -38z" />
    <glyph glyph-name="Ocircumflex" unicode="&#xd4;" horiz-adv-x="775" 
d="M737 346c0 -104 -31 -195 -104 -266c-65 -60 -146 -96 -249 -96c-91 0 -174 33 -239 94c-66 62 -107 147 -107 256s32 196 97 261c68 69 156 104 253 104c94 0 179 -31 254 -104c59 -59 95 -151 95 -249zM616 343c0 163 -62 325 -228 325c-142 0 -229 -122 -229 -329
c0 -178 73 -324 229 -324c155 0 228 142 228 328zM540 731l-15 -12l-143 134l-141 -134l-15 12c53 77 90 134 114 171c13 19 15 22 44 22s30 -3 41 -20c25 -36 62 -95 115 -173z" />
    <glyph glyph-name="Otilde" unicode="&#xd5;" horiz-adv-x="775" 
d="M737 346c0 -104 -31 -195 -104 -266c-65 -60 -146 -96 -249 -96c-91 0 -174 33 -239 94c-66 62 -107 147 -107 256s32 196 97 261c68 69 156 104 253 104c94 0 179 -31 254 -104c59 -59 95 -151 95 -249zM616 343c0 163 -62 325 -228 325c-142 0 -229 -122 -229 -329
c0 -178 73 -324 229 -324c155 0 228 142 228 328zM583 876c-13 -48 -63 -125 -128 -125c-81 0 -105 54 -161 54c-42 0 -55 -23 -81 -68l-19 8c16 46 61 125 125 125c77 0 107 -54 156 -54c61 0 68 25 88 67z" />
    <glyph glyph-name="Odieresis" unicode="&#xd6;" horiz-adv-x="775" 
d="M737 346c0 -104 -31 -195 -104 -266c-65 -60 -146 -96 -249 -96c-91 0 -174 33 -239 94c-66 62 -107 147 -107 256s32 196 97 261c68 69 156 104 253 104c94 0 179 -31 254 -104c59 -59 95 -151 95 -249zM616 343c0 163 -62 325 -228 325c-142 0 -229 -122 -229 -329
c0 -178 73 -324 229 -324c155 0 228 142 228 328zM551 810c0 -33 -26 -61 -59 -61c-32 0 -58 26 -58 57c0 32 26 59 58 59c34 0 59 -26 59 -55zM334 810c0 -33 -26 -61 -60 -61c-31 0 -57 26 -57 57c0 32 26 59 57 59c35 0 60 -26 60 -55z" />
    <glyph glyph-name="Ugrave" unicode="&#xd9;" horiz-adv-x="791" 
d="M783 661c-18 -1 -71 -11 -92 -24c-27 -17 -33 -71 -33 -133v-306c0 -163 -159 -214 -258 -214c-175 0 -265 92 -265 196v414c0 22 -8 38 -31 50c-18 9 -54 16 -70 17v22h311v-22c-18 -1 -54 -7 -72 -13c-25 -8 -31 -27 -31 -49v-399c0 -72 26 -173 182 -173
c159 0 196 109 196 175v296c0 73 -12 120 -34 134c-25 16 -79 28 -102 29v22h299v-22zM454 727l-14 -12c-80 64 -118 90 -148 114c-24 19 -36 30 -36 55c0 19 17 38 40 38c25 0 42 -10 61 -43c22 -37 46 -78 97 -152z" />
    <glyph glyph-name="Uacute" unicode="&#xda;" horiz-adv-x="791" 
d="M783 661c-18 -1 -71 -11 -92 -24c-27 -17 -33 -71 -33 -133v-306c0 -163 -159 -214 -258 -214c-175 0 -265 92 -265 196v414c0 22 -8 38 -31 50c-18 9 -54 16 -70 17v22h311v-22c-18 -1 -54 -7 -72 -13c-25 -8 -31 -27 -31 -49v-399c0 -72 26 -173 182 -173
c159 0 196 109 196 175v296c0 73 -12 120 -34 134c-25 16 -79 28 -102 29v22h299v-22zM555 884c0 -25 -12 -36 -36 -55c-30 -24 -68 -50 -148 -114l-14 12c51 74 75 115 97 152c19 33 36 43 61 43c23 0 40 -19 40 -38z" />
    <glyph glyph-name="Ucircumflex" unicode="&#xdb;" horiz-adv-x="791" 
d="M783 661c-18 -1 -71 -11 -92 -24c-27 -17 -33 -71 -33 -133v-306c0 -163 -159 -214 -258 -214c-175 0 -265 92 -265 196v414c0 22 -8 38 -31 50c-18 9 -54 16 -70 17v22h311v-22c-18 -1 -54 -7 -72 -13c-25 -8 -31 -27 -31 -49v-399c0 -72 26 -173 182 -173
c159 0 196 109 196 175v296c0 73 -12 120 -34 134c-25 16 -79 28 -102 29v22h299v-22zM568 731l-15 -12l-143 134l-141 -134l-15 12c53 77 90 134 114 171c13 19 15 22 44 22s30 -3 41 -20c25 -36 62 -95 115 -173z" />
    <glyph glyph-name="Udieresis" unicode="&#xdc;" horiz-adv-x="791" 
d="M783 661c-18 -1 -71 -11 -92 -24c-27 -17 -33 -71 -33 -133v-306c0 -163 -159 -214 -258 -214c-175 0 -265 92 -265 196v414c0 22 -8 38 -31 50c-18 9 -54 16 -70 17v22h311v-22c-18 -1 -54 -7 -72 -13c-25 -8 -31 -27 -31 -49v-399c0 -72 26 -173 182 -173
c159 0 196 109 196 175v296c0 73 -12 120 -34 134c-25 16 -79 28 -102 29v22h299v-22zM578 810c0 -33 -26 -61 -59 -61c-32 0 -58 26 -58 57c0 32 26 59 58 59c34 0 59 -26 59 -55zM361 810c0 -33 -26 -61 -60 -61c-31 0 -57 26 -57 57c0 32 26 59 57 59c35 0 60 -26 60 -55
z" />
    <glyph glyph-name="Yacute" unicode="&#xdd;" horiz-adv-x="625" 
d="M660 661c-12 -1 -47 -13 -58 -20c-26 -15 -35 -25 -56 -51c-55 -68 -101 -151 -159 -256c-17 -32 -30 -79 -30 -112v-133c0 -23 8 -40 31 -50c12 -5 64 -16 82 -17v-22h-332v22c18 1 69 7 82 12c24 9 31 28 31 50v174c0 20 -11 45 -26 75c-46 90 -89 170 -132 243
c-17 30 -37 54 -61 68c-18 10 -45 16 -64 17v22h322v-22c-35 -2 -101 -11 -101 -35c0 -14 66 -136 155 -294c93 146 164 265 164 281c0 33 -62 45 -108 48v22h260v-22zM510 884c0 -25 -12 -36 -36 -55c-30 -24 -68 -50 -148 -114l-14 12c51 74 75 115 97 152
c19 33 36 43 61 43c23 0 40 -19 40 -38z" />
    <glyph glyph-name="Thorn" unicode="&#xde;" horiz-adv-x="621" 
d="M590 373c0 -136 -129 -208 -258 -208h-78v-82c0 -22 7 -41 31 -50c13 -5 54 -10 79 -11v-22h-319v22c18 1 59 6 72 11c24 9 31 28 31 50v517c0 22 -7 41 -31 50c-13 5 -54 10 -72 11v22h319v-22c-25 -1 -66 -6 -79 -11c-24 -9 -31 -28 -31 -50v-65h122
c118 0 214 -59 214 -162zM466 348c0 75 -30 159 -144 159h-68v-312h49c144 0 163 106 163 153z" />
    <glyph glyph-name="agrave" unicode="&#xe0;" horiz-adv-x="490" 
d="M498 119c-6 -93 -44 -129 -106 -129c-47 0 -72 21 -88 67h-3c-36 -42 -88 -69 -148 -69c-69 0 -116 42 -116 106c0 82 48 110 98 129c57 22 126 39 168 63v56c0 18 -3 101 -86 101c-38 0 -52 -23 -61 -34c0 -15 9 -37 9 -59c0 -21 -22 -43 -58 -43c-33 0 -45 26 -45 52
c0 60 85 106 161 106c99 0 172 -15 172 -148c0 -88 -5 -191 -5 -224c0 -15 14 -51 47 -51s36 39 39 77h22zM304 257c-100 -31 -170 -59 -170 -148c0 -55 25 -80 68 -80c52 0 74 23 98 53zM300 536l-14 -12c-80 64 -118 90 -148 114c-24 19 -36 30 -36 55c0 19 17 38 40 38
c25 0 42 -10 61 -43c22 -37 46 -78 97 -152z" />
    <glyph glyph-name="aacute" unicode="&#xe1;" horiz-adv-x="490" 
d="M498 119c-6 -93 -44 -129 -106 -129c-47 0 -72 21 -88 67h-3c-36 -42 -88 -69 -148 -69c-69 0 -116 42 -116 106c0 82 48 110 98 129c57 22 126 39 168 63v56c0 18 -3 101 -86 101c-38 0 -52 -23 -61 -34c0 -15 9 -37 9 -59c0 -21 -22 -43 -58 -43c-33 0 -45 26 -45 52
c0 60 85 106 161 106c99 0 172 -15 172 -148c0 -88 -5 -191 -5 -224c0 -15 14 -51 47 -51s36 39 39 77h22zM304 257c-100 -31 -170 -59 -170 -148c0 -55 25 -80 68 -80c52 0 74 23 98 53zM360 693c0 -25 -12 -36 -36 -55c-30 -24 -68 -50 -148 -114l-14 12
c51 74 75 115 97 152c19 33 36 43 61 43c23 0 40 -19 40 -38z" />
    <glyph glyph-name="acircumflex" unicode="&#xe2;" horiz-adv-x="490" 
d="M498 119c-6 -93 -44 -129 -106 -129c-47 0 -72 21 -88 67h-3c-36 -42 -88 -69 -148 -69c-69 0 -116 42 -116 106c0 82 48 110 98 129c57 22 126 39 168 63v56c0 18 -3 101 -86 101c-38 0 -52 -23 -61 -34c0 -15 9 -37 9 -59c0 -21 -22 -43 -58 -43c-33 0 -45 26 -45 52
c0 60 85 106 161 106c99 0 172 -15 172 -148c0 -88 -5 -191 -5 -224c0 -15 14 -51 47 -51s36 39 39 77h22zM304 257c-100 -31 -170 -59 -170 -148c0 -55 25 -80 68 -80c52 0 74 23 98 53zM386 540l-15 -12l-143 134l-141 -134l-15 12c53 77 90 134 114 171
c13 19 15 22 44 22s30 -3 41 -20c25 -36 62 -95 115 -173z" />
    <glyph glyph-name="atilde" unicode="&#xe3;" horiz-adv-x="490" 
d="M498 119c-6 -93 -44 -129 -106 -129c-47 0 -72 21 -88 67h-3c-36 -42 -88 -69 -148 -69c-69 0 -116 42 -116 106c0 82 48 110 98 129c57 22 126 39 168 63v56c0 18 -3 101 -86 101c-38 0 -52 -23 -61 -34c0 -15 9 -37 9 -59c0 -21 -22 -43 -58 -43c-33 0 -45 26 -45 52
c0 60 85 106 161 106c99 0 172 -15 172 -148c0 -88 -5 -191 -5 -224c0 -15 14 -51 47 -51s36 39 39 77h22zM304 257c-100 -31 -170 -59 -170 -148c0 -55 25 -80 68 -80c52 0 74 23 98 53zM433 690c-13 -48 -63 -125 -128 -125c-81 0 -105 54 -161 54c-42 0 -55 -23 -81 -68
l-19 8c16 46 61 125 125 125c77 0 107 -54 156 -54c61 0 68 25 88 67z" />
    <glyph glyph-name="adieresis" unicode="&#xe4;" horiz-adv-x="490" 
d="M498 119c-6 -93 -44 -129 -106 -129c-47 0 -72 21 -88 67h-3c-36 -42 -88 -69 -148 -69c-69 0 -116 42 -116 106c0 82 48 110 98 129c57 22 126 39 168 63v56c0 18 -3 101 -86 101c-38 0 -52 -23 -61 -34c0 -15 9 -37 9 -59c0 -21 -22 -43 -58 -43c-33 0 -45 26 -45 52
c0 60 85 106 161 106c99 0 172 -15 172 -148c0 -88 -5 -191 -5 -224c0 -15 14 -51 47 -51s36 39 39 77h22zM304 257c-100 -31 -170 -59 -170 -148c0 -55 25 -80 68 -80c52 0 74 23 98 53zM400 649c0 -33 -26 -61 -59 -61c-32 0 -58 26 -58 57c0 32 26 59 58 59
c34 0 59 -26 59 -55zM183 649c0 -33 -26 -61 -60 -61c-31 0 -57 26 -57 57c0 32 26 59 57 59c35 0 60 -26 60 -55z" />
    <glyph glyph-name="aring" unicode="&#xe5;" horiz-adv-x="490" 
d="M498 119c-6 -93 -44 -129 -106 -129c-47 0 -72 21 -88 67h-3c-36 -42 -88 -69 -148 -69c-69 0 -116 42 -116 106c0 82 48 110 98 129c57 22 126 39 168 63v56c0 18 -3 101 -86 101c-38 0 -52 -23 -61 -34c0 -15 9 -37 9 -59c0 -21 -22 -43 -58 -43c-33 0 -45 26 -45 52
c0 60 85 106 161 106c99 0 172 -15 172 -148c0 -88 -5 -191 -5 -224c0 -15 14 -51 47 -51s36 39 39 77h22zM304 257c-100 -31 -170 -59 -170 -148c0 -55 25 -80 68 -80c52 0 74 23 98 53zM333 629c0 -57 -44 -98 -105 -98c-62 0 -105 39 -105 98c0 58 48 98 105 98
c59 0 105 -39 105 -98zM288 629c0 43 -22 75 -60 75c-37 0 -60 -29 -60 -75c0 -44 22 -75 60 -75s60 30 60 75z" />
    <glyph glyph-name="ccedilla" unicode="&#xe7;" horiz-adv-x="435" 
d="M434 107c-37 -66 -106 -119 -185 -119c-8 0 -16 0 -24 1v-44c56 0 129 -12 129 -76c0 -87 -105 -96 -208 -96v26c62 0 136 -5 136 52c0 36 -46 37 -85 37v105c-110 22 -165 115 -165 235c0 123 85 237 222 237c103 0 155 -55 155 -116c0 -33 -17 -56 -52 -56
c-20 0 -56 11 -56 50c0 42 13 43 13 62c-5 29 -25 36 -60 36c-59 0 -121 -53 -121 -204c0 -117 52 -205 140 -205c71 0 109 31 142 89z" />
    <glyph glyph-name="egrave" unicode="&#xe8;" horiz-adv-x="456" 
d="M439 109c-35 -71 -102 -121 -186 -121c-151 0 -221 110 -221 242c0 120 77 235 210 235c137 0 187 -90 187 -192v-9h-298v-11c0 -129 42 -221 149 -221c78 0 103 28 141 89zM332 288c0 72 -15 154 -91 154c-63 0 -107 -62 -110 -156zM311 536l-14 -12
c-80 64 -118 90 -148 114c-24 19 -36 30 -36 55c0 19 17 38 40 38c25 0 42 -10 61 -43c22 -37 46 -78 97 -152z" />
    <glyph glyph-name="eacute" unicode="&#xe9;" horiz-adv-x="456" 
d="M439 109c-35 -71 -102 -121 -186 -121c-151 0 -221 110 -221 242c0 120 77 235 210 235c137 0 187 -90 187 -192v-9h-298v-11c0 -129 42 -221 149 -221c78 0 103 28 141 89zM332 288c0 72 -15 154 -91 154c-63 0 -107 -62 -110 -156zM386 693c0 -25 -12 -36 -36 -55
c-30 -24 -68 -50 -148 -114l-14 12c51 74 75 115 97 152c19 33 36 43 61 43c23 0 40 -19 40 -38z" />
    <glyph glyph-name="ecircumflex" unicode="&#xea;" horiz-adv-x="456" 
d="M439 109c-35 -71 -102 -121 -186 -121c-151 0 -221 110 -221 242c0 120 77 235 210 235c137 0 187 -90 187 -192v-9h-298v-11c0 -129 42 -221 149 -221c78 0 103 28 141 89zM332 288c0 72 -15 154 -91 154c-63 0 -107 -62 -110 -156zM400 540l-15 -12l-143 134l-141 -134
l-15 12c53 77 90 134 114 171c13 19 15 22 44 22s30 -3 41 -20c25 -36 62 -95 115 -173z" />
    <glyph glyph-name="edieresis" unicode="&#xeb;" horiz-adv-x="456" 
d="M439 109c-35 -71 -102 -121 -186 -121c-151 0 -221 110 -221 242c0 120 77 235 210 235c137 0 187 -90 187 -192v-9h-298v-11c0 -129 42 -221 149 -221c78 0 103 28 141 89zM332 288c0 72 -15 154 -91 154c-63 0 -107 -62 -110 -156zM415 649c0 -33 -26 -61 -59 -61
c-32 0 -58 26 -58 57c0 32 26 59 58 59c34 0 59 -26 59 -55zM198 649c0 -33 -26 -61 -60 -61c-31 0 -57 26 -57 57c0 32 26 59 57 59c35 0 60 -26 60 -55z" />
    <glyph glyph-name="igrave" unicode="&#xec;" horiz-adv-x="286" 
d="M266 0h-233v20c18 1 30 3 44 7c19 6 27 23 27 45v287c-2 21 -11 39 -27 50c-12 8 -41 18 -59 19v19l170 11l7 -7v-373c0 -20 7 -37 27 -46c14 -6 27 -11 44 -12v-20zM216 536l-14 -12c-80 64 -118 90 -148 114c-24 19 -36 30 -36 55c0 19 17 38 40 38c25 0 42 -10 61 -43
c22 -37 46 -78 97 -152z" />
    <glyph glyph-name="iacute" unicode="&#xed;" horiz-adv-x="286" 
d="M266 0h-233v20c18 1 30 3 44 7c19 6 27 23 27 45v287c-2 21 -11 39 -27 50c-12 8 -41 18 -59 19v19l170 11l7 -7v-373c0 -20 7 -37 27 -46c14 -6 27 -11 44 -12v-20zM248 693c0 -25 -12 -36 -36 -55c-30 -24 -68 -50 -148 -114l-14 12c51 74 75 115 97 152
c19 33 36 43 61 43c23 0 40 -19 40 -38z" />
    <glyph glyph-name="icircumflex" unicode="&#xee;" horiz-adv-x="286" 
d="M261 540l-15 -12l-120 139l-118 -139l-15 12c49 80 73 133 95 171c12 20 11 22 40 22s27 -3 37 -20c22 -37 47 -91 96 -173zM266 0h-233v20c18 1 30 3 44 7c19 6 27 23 27 45v287c-2 21 -11 39 -27 50c-12 8 -41 18 -59 19v19l170 11l7 -7v-373c0 -20 7 -37 27 -46
c14 -6 27 -11 44 -12v-20z" />
    <glyph glyph-name="idieresis" unicode="&#xef;" horiz-adv-x="286" 
d="M284 649c0 -33 -25 -60 -58 -60c-32 0 -57 25 -57 56c0 32 25 59 57 59c34 0 58 -26 58 -55zM97 649c0 -33 -25 -61 -59 -61c-31 0 -56 26 -56 57c0 32 25 59 56 59c35 0 59 -26 59 -55zM266 0h-233v20c18 1 30 3 44 7c19 6 27 23 27 45v287c-2 21 -11 39 -27 50
c-12 8 -41 18 -59 19v19l170 11l7 -7v-373c0 -20 7 -37 27 -46c14 -6 27 -11 44 -12v-20z" />
    <glyph glyph-name="eth" unicode="&#xf0;" horiz-adv-x="529" 
d="M494 289c0 -179 -83 -303 -236 -303c-116 0 -226 87 -226 244c0 140 91 235 222 235c61 0 110 -32 132 -66l4 1c-9 80 -39 175 -85 235l-115 -69l-15 24l112 68c-22 27 -50 52 -82 73l13 18c36 -18 85 -51 105 -70l97 59l16 -26l-89 -53c95 -87 147 -211 147 -370z
M391 241c0 107 -42 200 -127 200c-102 0 -131 -106 -131 -206c0 -137 40 -226 130 -226c94 0 128 114 128 232z" />
    <glyph glyph-name="ntilde" unicode="&#xf1;" horiz-adv-x="584" 
d="M564 0h-236v20c18 1 33 3 47 7c19 6 27 23 27 45v241c0 69 -40 107 -83 107c-73 0 -114 -47 -125 -70v-273c0 -22 9 -37 27 -45c15 -7 30 -11 47 -12v-20h-236v20c18 1 30 3 44 7c19 6 27 23 27 45v287c-2 21 -11 42 -27 53c-12 8 -31 15 -49 16v19l160 11l7 -7v-68h2
c38 37 76 82 162 82c93 0 136 -63 136 -158v-231c0 -22 8 -37 26 -45c14 -6 26 -10 44 -11v-20zM498 690c-13 -48 -63 -125 -128 -125c-81 0 -105 54 -161 54c-42 0 -55 -23 -81 -68l-19 8c16 46 61 125 125 125c77 0 107 -54 156 -54c61 0 68 25 88 67z" />
    <glyph glyph-name="ograve" unicode="&#xf2;" horiz-adv-x="523" 
d="M492 231c0 -133 -84 -245 -235 -245c-120 0 -226 91 -226 238c0 142 93 241 233 241s228 -101 228 -234zM391 230c0 105 -31 212 -128 212c-104 0 -131 -115 -131 -210c0 -119 37 -223 131 -223c89 0 128 101 128 221zM339 536l-14 -12c-80 64 -118 90 -148 114
c-24 19 -36 30 -36 55c0 19 17 38 40 38c25 0 42 -10 61 -43c22 -37 46 -78 97 -152z" />
    <glyph glyph-name="oacute" unicode="&#xf3;" horiz-adv-x="523" 
d="M492 231c0 -133 -84 -245 -235 -245c-120 0 -226 91 -226 238c0 142 93 241 233 241s228 -101 228 -234zM391 230c0 105 -31 212 -128 212c-104 0 -131 -115 -131 -210c0 -119 37 -223 131 -223c89 0 128 101 128 221zM373 693c0 -25 -12 -36 -36 -55
c-30 -24 -68 -50 -148 -114l-14 12c51 74 75 115 97 152c19 33 36 43 61 43c23 0 40 -19 40 -38z" />
    <glyph glyph-name="ocircumflex" unicode="&#xf4;" horiz-adv-x="523" 
d="M492 231c0 -133 -84 -245 -235 -245c-120 0 -226 91 -226 238c0 142 93 241 233 241s228 -101 228 -234zM391 230c0 105 -31 212 -128 212c-104 0 -131 -115 -131 -210c0 -119 37 -223 131 -223c89 0 128 101 128 221zM420 540l-15 -12l-143 134l-141 -134l-15 12
c53 77 90 134 114 171c13 19 15 22 44 22s30 -3 41 -20c25 -36 62 -95 115 -173z" />
    <glyph glyph-name="otilde" unicode="&#xf5;" horiz-adv-x="523" 
d="M492 231c0 -133 -84 -245 -235 -245c-120 0 -226 91 -226 238c0 142 93 241 233 241s228 -101 228 -234zM391 230c0 105 -31 212 -128 212c-104 0 -131 -115 -131 -210c0 -119 37 -223 131 -223c89 0 128 101 128 221zM458 690c-13 -48 -63 -125 -128 -125
c-81 0 -105 54 -161 54c-42 0 -55 -23 -81 -68l-19 8c16 46 61 125 125 125c77 0 107 -54 156 -54c61 0 68 25 88 67z" />
    <glyph glyph-name="odieresis" unicode="&#xf6;" horiz-adv-x="523" 
d="M492 231c0 -133 -84 -245 -235 -245c-120 0 -226 91 -226 238c0 142 93 241 233 241s228 -101 228 -234zM391 230c0 105 -31 212 -128 212c-104 0 -131 -115 -131 -210c0 -119 37 -223 131 -223c89 0 128 101 128 221zM430 649c0 -33 -26 -61 -59 -61
c-32 0 -58 26 -58 57c0 32 26 59 58 59c34 0 59 -26 59 -55zM213 649c0 -33 -26 -61 -60 -61c-31 0 -57 26 -57 57c0 32 26 59 57 59c35 0 60 -26 60 -55z" />
    <glyph glyph-name="ugrave" unicode="&#xf9;" horiz-adv-x="567" 
d="M547 9l-157 -11l-7 7v61h-3c-38 -38 -74 -78 -160 -78c-93 0 -130 69 -130 163v210c-2 21 -10 39 -26 50c-12 8 -32 15 -50 16v19l161 12l7 -7v-318c0 -69 36 -105 79 -105c73 0 108 47 121 68v268c-2 21 -10 39 -26 50c-12 8 -39 12 -65 13v19l175 12l7 -7v-362
c2 -21 10 -37 26 -48c12 -8 30 -12 48 -13v-19zM347 536l-14 -12c-80 64 -118 90 -148 114c-24 19 -36 30 -36 55c0 19 17 38 40 38c25 0 42 -10 61 -43c22 -37 46 -78 97 -152z" />
    <glyph glyph-name="uacute" unicode="&#xfa;" horiz-adv-x="567" 
d="M547 9l-157 -11l-7 7v61h-3c-38 -38 -74 -78 -160 -78c-93 0 -130 69 -130 163v210c-2 21 -10 39 -26 50c-12 8 -32 15 -50 16v19l161 12l7 -7v-318c0 -69 36 -105 79 -105c73 0 108 47 121 68v268c-2 21 -10 39 -26 50c-12 8 -39 12 -65 13v19l175 12l7 -7v-362
c2 -21 10 -37 26 -48c12 -8 30 -12 48 -13v-19zM410 693c0 -25 -12 -36 -36 -55c-30 -24 -68 -50 -148 -114l-14 12c51 74 75 115 97 152c19 33 36 43 61 43c23 0 40 -19 40 -38z" />
    <glyph glyph-name="ucircumflex" unicode="&#xfb;" horiz-adv-x="567" 
d="M547 9l-157 -11l-7 7v61h-3c-38 -38 -74 -78 -160 -78c-93 0 -130 69 -130 163v210c-2 21 -10 39 -26 50c-12 8 -32 15 -50 16v19l161 12l7 -7v-318c0 -69 36 -105 79 -105c73 0 108 47 121 68v268c-2 21 -10 39 -26 50c-12 8 -39 12 -65 13v19l175 12l7 -7v-362
c2 -21 10 -37 26 -48c12 -8 30 -12 48 -13v-19zM423 540l-15 -12l-143 134l-141 -134l-15 12c53 77 90 134 114 171c13 19 15 22 44 22s30 -3 41 -20c25 -36 62 -95 115 -173z" />
    <glyph glyph-name="udieresis" unicode="&#xfc;" horiz-adv-x="567" 
d="M547 9l-157 -11l-7 7v61h-3c-38 -38 -74 -78 -160 -78c-93 0 -130 69 -130 163v210c-2 21 -10 39 -26 50c-12 8 -32 15 -50 16v19l161 12l7 -7v-318c0 -69 36 -105 79 -105c73 0 108 47 121 68v268c-2 21 -10 39 -26 50c-12 8 -39 12 -65 13v19l175 12l7 -7v-362
c2 -21 10 -37 26 -48c12 -8 30 -12 48 -13v-19zM437 649c0 -33 -26 -61 -59 -61c-32 0 -58 26 -58 57c0 32 26 59 58 59c34 0 59 -26 59 -55zM220 649c0 -33 -26 -61 -60 -61c-31 0 -57 26 -57 57c0 32 26 59 57 59c35 0 60 -26 60 -55z" />
    <glyph glyph-name="yacute" unicode="&#xfd;" horiz-adv-x="462" 
d="M483 433c-19 -3 -60 -27 -74 -56c-23 -53 -71 -170 -110 -263c-27 -67 -48 -121 -52 -129c-89 -202 -125 -211 -185 -211c-27 0 -74 18 -74 68c0 26 22 58 57 58c22 0 52 -10 52 -50v-35c58 14 125 175 125 175c-70 177 -94 230 -161 392c-12 28 -45 45 -74 49v21h219
v-23c-23 -1 -54 -5 -54 -21c0 -1 2 -9 7 -21c19 -51 70 -171 111 -275h2c38 91 66 157 104 256c3 8 6 20 6 28c0 20 -56 34 -72 36v20h173v-19zM411 693c0 -25 -12 -36 -36 -55c-30 -24 -68 -50 -148 -114l-14 12c51 74 75 115 97 152c19 33 36 43 61 43c23 0 40 -19 40 -38
z" />
    <glyph glyph-name="thorn" unicode="&#xfe;" horiz-adv-x="551" 
d="M519 224c0 -137 -109 -238 -227 -238c-58 0 -92 14 -115 31h-4v-161c0 -22 10 -40 28 -47c15 -6 51 -14 69 -15v-20h-269v20c18 1 41 5 55 9c19 6 26 25 26 47v792c0 22 -11 47 -27 57c-12 8 -48 16 -66 17v19l177 11l7 -7v-334l3 -1c23 25 72 61 135 61
c115 0 208 -94 208 -241zM417 223c0 100 -39 201 -140 201c-48 0 -80 -19 -104 -47v-279c11 -32 43 -91 111 -91c76 0 133 79 133 216z" />
    <glyph glyph-name="ydieresis" unicode="&#xff;" horiz-adv-x="462" 
d="M483 433c-19 -3 -60 -27 -74 -56c-23 -53 -71 -170 -110 -263c-27 -67 -48 -121 -52 -129c-89 -202 -125 -211 -185 -211c-27 0 -74 18 -74 68c0 26 22 58 57 58c22 0 52 -10 52 -50v-35c58 14 125 175 125 175c-70 177 -94 230 -161 392c-12 28 -45 45 -74 49v21h219
v-23c-23 -1 -54 -5 -54 -21c0 -1 2 -9 7 -21c19 -51 70 -171 111 -275h2c38 91 66 157 104 256c3 8 6 20 6 28c0 20 -56 34 -72 36v20h173v-19zM414 649c0 -33 -26 -61 -59 -61c-32 0 -58 26 -58 57c0 32 26 59 58 59c34 0 59 -26 59 -55zM197 649c0 -33 -26 -61 -60 -61
c-31 0 -57 26 -57 57c0 32 26 59 57 59c35 0 60 -26 60 -55z" />
    <glyph glyph-name="Delta" unicode="&#x394;" horiz-adv-x="685" 
d="M684 0h-680v8l333 683h34l313 -683v-8zM537 84l-225 480l-235 -480h460z" />
    <glyph glyph-name="NUL" horiz-adv-x="0" 
 />
    <glyph glyph-name="Omega" unicode="&#x3a9;" horiz-adv-x="779" 
d="M772 164l-57 -164h-269v18c81 120 145 223 145 366c0 118 -34 284 -201 284c-165 0 -200 -167 -200 -284c0 -144 64 -246 145 -366v-18h-269l-57 164l22 9c19 -43 48 -88 91 -88h136l-10 17c-99 114 -177 195 -177 335c0 138 133 262 319 262c191 0 320 -121 320 -259
c0 -146 -85 -232 -178 -339l-9 -16h136c43 0 72 45 91 88z" />
    <glyph glyph-name="apple" unicode="&#xf8ff;" horiz-adv-x="714" 
d="M743 0h-219c-15 73 -30 130 -57 198c-28 71 -92 134 -162 134h-51v-249c0 -22 7 -41 31 -50c13 -5 58 -10 76 -11v-22h-316v22c18 1 59 6 72 11c24 9 31 28 31 50v514c0 22 -6 42 -31 50c-18 6 -54 13 -72 14v22h348c101 0 209 -45 209 -156c0 -109 -83 -144 -191 -174
v-10c60 -14 135 -47 167 -127c16 -40 38 -110 44 -128c16 -48 42 -55 61 -59c20 -4 42 -6 60 -7v-22zM479 517c0 91 -62 138 -138 138h-87v-294h64c89 0 161 63 161 156z" />
    <glyph glyph-name="infinity" unicode="&#x221e;" horiz-adv-x="870" 
d="M847 0h-231v20c18 1 28 3 42 7c19 6 27 23 27 45v292c-2 20 -5 36 -14 50h-184v-337c0 -22 9 -38 27 -45c15 -6 32 -11 50 -12v-20h-239v20c18 1 30 3 44 7c19 6 27 23 27 45v341h-201v-336c0 -22 9 -38 27 -45c15 -6 27 -11 45 -12v-20h-234v20c18 1 30 3 44 7
c19 6 27 23 27 45v339h-102v39h102v26c0 83 25 147 72 200c29 32 89 64 149 64c77 0 117 -32 133 -72c27 35 84 79 157 79c124 0 151 -52 151 -107c0 -21 -14 -57 -53 -57c-21 0 -56 11 -56 45c0 33 13 45 16 53c-1 15 -3 43 -64 43s-122 -59 -122 -213v-61h161l121 8l7 -7
v-373c0 -23 9 -39 27 -46c15 -6 26 -11 44 -12v-20zM412 587c-29 1 -47 14 -47 36c0 33 12 42 15 50c-2 15 -7 44 -62 44c-58 0 -124 -54 -124 -211v-56h204v31c0 41 5 77 14 106z" />
    <glyph glyph-name="nbspace" unicode="&#xa0;" horiz-adv-x="118" 
 />
    <glyph glyph-name="notequal" unicode="&#x2260;" horiz-adv-x="611" 
d="M703 663c0 -19 -16 -51 -48 -51c-21 0 -51 11 -51 45c0 15 4 31 4 53c-4 12 -22 15 -29 15c-61 0 -91 -56 -91 -210v-65h122v-39h-122v-334c0 -22 9 -38 27 -45c15 -6 37 -11 55 -12v-20h-239v20c18 1 25 3 39 7c19 6 27 23 27 45v341h-202v-336c0 -22 9 -38 27 -45
c15 -6 27 -11 45 -12v-20h-234v20c18 1 30 3 44 7c19 6 27 23 27 45v339h-102v39h102v26c0 83 25 147 72 200c29 32 88 64 148 64c79 0 117 -32 131 -66c34 52 103 73 149 73c63 0 99 -41 99 -84zM415 587c-31 0 -51 13 -51 36c0 33 12 42 15 50c-2 15 -7 44 -62 44
c-58 0 -123 -54 -123 -211v-56h205v29c0 38 7 76 16 108z" />
    <glyph glyph-name="pi" unicode="&#x3c0;" horiz-adv-x="480" 
d="M496 364c0 -20 -11 -75 -37 -75c-18 0 -78 2 -103 4c-25 -62 -37 -141 -37 -171v-16c11 5 23 9 34 9c12 0 21 -7 21 -35c0 -26 -35 -84 -83 -84c-24 0 -33 18 -33 42c0 38 47 170 72 258h-69c-41 -90 -95 -222 -129 -295c-9 -2 -19 -3 -26 -3c-14 0 -25 4 -31 10v10
c50 63 120 185 159 278c-42 1 -73 1 -93 1c-34 0 -73 -10 -73 -47c0 -11 13 -42 20 -62v-8c-12 -8 -33 -13 -45 -4c-8 14 -10 31 -10 49c0 44 33 139 140 139c66 0 248 -5 269 -5c19 0 24 11 31 33c5 2 13 2 19 0c2 -8 4 -15 4 -28z" />
    <glyph glyph-name="product" unicode="&#x220f;" horiz-adv-x="859" 
d="M817 652h-106v-566c0 -22 8 -38 31 -49c12 -6 52 -14 70 -15v-22h-311v22c18 1 60 5 73 10c24 9 31 27 31 49v571h-351v-566c0 -22 8 -39 31 -49c12 -5 56 -14 74 -15v-22h-312v22c18 1 57 5 70 10c24 9 31 27 31 49v571h-106v31h775v-31z" />
    <glyph glyph-name="summation" unicode="&#x2211;" horiz-adv-x="637" 
d="M638 194l-65 -194h-567v14c133 129 212 205 316 311c-114 125 -234 263 -306 346v12h557l7 -174h-24c-12 46 -72 135 -117 142c-23 4 -58 5 -86 5h-192c81 -92 146 -164 252 -281v-8c-104 -104 -207 -204 -289 -281h371c59 0 96 68 121 116z" />
    </font>
</defs>
</svg>
